<svg width="48" height="48" fill="none" xmlns="http://www.w3.org/2000/svg"><g clip-path="url('#clip0_8_132')"><path d="M27 15a1.5 1.5 0 0 1 1.5-1.5h18a1.5 1.5 0 0 1 0 3h-18A1.5 1.5 0 0 1 27 15Zm19.5 7.5h-18a1.5 1.5 0 0 0 0 3h18a1.5 1.5 0 1 0 0-3Zm0 9H33a1.5 1.5 0 0 0 0 3h13.5a1.5 1.5 0 1 0 0-3Zm-26.008-4.875a9 9 0 1 0-10.984 0c-3.866 1.637-6.913 4.931-7.961 9A1.5 1.5 0 0 0 3 37.5h24a1.5 1.5 0 0 0 1.453-1.875c-1.048-4.07-4.095-7.365-7.961-9Z" fill="#1D1E1C"/></g><defs><clipPath id="clip0_8_132"><path fill="#fff" d="M0 0h48v48H0z"/></clipPath></defs></svg>