<svg width="48" height="48" fill="none" xmlns="http://www.w3.org/2000/svg"><g clip-path="url('#clip0_8_116')"><path d="M41.854 21.703c.097.762.146 1.529.146 2.297a17.986 17.986 0 0 1-28.982 14.25c4.723-1.155 10.279-3.55 15.458-6.525 5.52-3.17 10.179-6.701 13.378-10.022Zm4.104-10.326c-1.434-2.473-5.22-3.03-10.969-1.623A17.987 17.987 0 0 0 6 24c0 .772.05 1.543.146 2.308-5.192 5.38-5.117 8.567-4.102 10.314C3 38.28 4.995 39 7.62 39a23.268 23.268 0 0 0 5.398-.75 18.232 18.232 0 0 1-2.655-2.516c-3.242.54-5.25.187-5.724-.617-.274-.47-.122-1.358.416-2.438a14.893 14.893 0 0 1 1.928-2.822v-.016.015a18.04 18.04 0 0 0 3.375 5.872c3.926-.654 9.654-2.608 16.618-6.61 5.274-3.02 10.899-7.242 14.047-10.964a17.94 17.94 0 0 0-3.375-5.878l-.024-.029c0 .01.017.017.024.029 2.664-.441 5.132-.407 5.719.607.172.294.187.735.028 1.313-.317 1.183-1.16 2.536-2.368 3.961.397 1.152.675 2.341.83 3.55 2.344-2.438 3.904-4.753 4.435-6.735.364-1.376.253-2.584-.334-3.595Z" fill="#1D1E1C"/></g><defs><clipPath id="clip0_8_116"><path fill="#fff" d="M0 0h48v48H0z"/></clipPath></defs></svg>