<svg xmlns="http://www.w3.org/2000/svg" aria-hidden="true" style="width: 0; height: 0; position: absolute; overflow: hidden" preserveAspectRatio="none" viewBox="166.11 253.75 252.52 31.03">
<defs>
   <symbol id="icon-menu" viewBox="0 0 32 32">
<path height="1px" d="M2 6h28v6h-28zM2 14h28v6h-28zM2 22h28v6h-28z"></path>
</symbol>
<symbol id="icon-partnerlogo1" viewBox="0 0 256 32">
<path d="M127.483 27.577h-8.623v-23.053h8.623v23.053zM119.702 26.735h6.939v-21.369h-6.939v21.369zM139.481 27.577h-8.45v-23.053h17.654c2.529-0.205 5.048 0.505 7.097 2.001 0.882 0.807 1.566 1.807 1.998 2.923s0.601 2.315 0.493 3.506c0.126 2.058-0.529 4.088-1.834 5.684-1.544 1.772-4.115 2.685-7.638 2.717-0.888 0.024-7.539 0-9.315 0l-0.005 6.223zM131.869 26.735h6.771v-6.232h0.423c0.086 0 8.721 0.027 9.72 0 3.283-0.029 5.642-0.842 7.021-2.43 1.162-1.444 1.739-3.272 1.617-5.122 0.104-1.067-0.040-2.144-0.42-3.147s-0.985-1.904-1.77-2.635c-1.9-1.364-4.226-2.004-6.557-1.805h-16.8l-0.005 21.371zM146.897 16.175h-8.315v-6.275h8.371c0.593-0.082 1.198-0.013 1.757 0.201s1.056 0.566 1.443 1.023c0.351 0.584 0.517 1.261 0.475 1.942 0.031 0.632-0.105 1.261-0.396 1.822-0.399 0.481-0.916 0.852-1.5 1.076s-1.216 0.294-1.835 0.204v0.007zM139.424 15.333h7.473c1.381 0 2.237-0.288 2.616-0.881 0.209-0.431 0.303-0.908 0.275-1.386 0.037-0.502-0.072-1.004-0.313-1.445l-0.010-0.015c-0.401-0.589-1.197-0.864-2.511-0.864h-7.528v4.591zM173.642 27.918c-7.562 0-12.076-1.878-13.795-5.74-0.281-0.746-0.472-1.523-0.569-2.314l-0.074-0.485h8.997l0.059 0.354c0.069 0.359 0.222 0.697 0.445 0.987 0.355 0.429 1.541 1.15 5.475 1.15 4.729 0 4.729-0.83 4.729-1.277 0-0.753-0.547-1.011-4.404-1.421l-0.733-0.069c-1.452-0.136-3.288-0.31-4.126-0.382-7.074-0.64-10.232-2.838-10.232-7.124 0-4.502 5.374-7.411 13.693-7.411 6.786 0 11.158 1.789 12.992 5.32 0.435 0.822 0.728 1.711 0.864 2.631l0.059 0.473h-9.007l-0.037-0.381c-0.035-0.297-0.162-0.577-0.364-0.798-0.337-0.451-1.401-1.197-4.706-1.197-4.057 0-4.616 0.519-4.616 1.078 0 0.746 1.282 1.011 5.389 1.45 1.713 0.14 4.467 0.423 5.41 0.537 5.93 0.643 8.576 2.787 8.576 6.954 0.002 3.495-2.432 7.665-14.024 7.665zM160.187 20.221c0.084 0.555 0.23 1.1 0.433 1.624 1.566 3.518 5.827 5.231 13.022 5.231 6.016 0 13.189-1.179 13.189-6.823 0-3.693-2.341-5.523-7.83-6.117-0.943-0.115-3.68-0.396-5.389-0.537-4.379-0.475-6.159-0.728-6.159-2.287 0-1.613 1.918-1.92 5.459-1.92 2.797 0 4.605 0.505 5.371 1.524 0.209 0.251 0.367 0.541 0.465 0.852h7.299c-0.147-0.651-0.379-1.281-0.691-1.871-1.684-3.232-5.799-4.869-12.246-4.869-7.806 0-12.851 2.579-12.851 6.568 0 3.806 2.831 5.686 9.464 6.285 0.842 0.072 2.676 0.246 4.131 0.384l0.738 0.069c3.582 0.377 5.162 0.613 5.162 2.259 0 1.772-2.043 2.119-5.571 2.119-3.264 0-5.325-0.49-6.122-1.455-0.246-0.308-0.431-0.659-0.546-1.036h-7.328zM203.667 27.889c-8.792 0-13.642-3.555-13.642-10.013v-13.352h8.509v13.352c0 2.215 1.982 3.485 5.437 3.485 3.301 0 5.351-1.325 5.351-3.456v-13.381h8.421v14.060c0.008 5.913-5.127 9.305-14.080 9.305h0.005zM190.867 5.366v12.51c0 7.98 8.013 9.171 12.8 9.171 4.948 0 13.246-1.1 13.246-8.463v-13.218h-6.737v12.539c0 2.611-2.432 4.298-6.193 4.298-3.931 0-6.279-1.617-6.279-4.327v-12.51h-6.838zM253.427 27.577h-8.030v-10.408l-4.554 10.408h-7.005l-4.507-10.388v10.388h-8.059v-23.053h10.6l5.507 12.711 5.773-12.711h10.284l-0.010 23.053zM246.238 26.735h6.346v-21.369h-8.896l-6.336 13.944-6.040-13.944h-9.206v21.369h6.375v-13.598l5.895 13.603h5.895l5.957-13.583 0.010 13.578zM10.196 4.945h-7.67v22.211h21.194v-5.913h-13.524v-16.298zM39.202 4.44c-9.79 0-14.939 4.64-14.939 11.453 0 7.697 5.405 11.601 14.939 11.601 10.496 0 14.91-4.527 14.91-11.601 0-7.183-4.98-11.456-14.91-11.456v0.003zM39.173 10.212c0.666-0.003 1.333 0.036 1.994 0.116l-8.574 8.574c-0.406-0.918-0.604-1.914-0.579-2.917 0-3.485 1.755-5.777 7.16-5.777v0.003zM39.202 21.812c-0.642 0.003-1.284-0.033-1.922-0.108l8.589-8.589c0.391 0.903 0.578 1.88 0.547 2.863 0 3.39-1.617 5.831-7.215 5.831v0.003zM69.309 18.781h7.894c-0.116 0.548-0.358 1.061-0.707 1.499-1.637 1.333-3.725 1.982-5.829 1.811-1.059 0.113-2.13-0.002-3.14-0.339s-1.937-0.887-2.716-1.613c-0.798-1.171-1.177-2.577-1.076-3.99-0.129-1.481 0.283-2.958 1.16-4.158 1.103-1.246 2.971-1.784 5.716-1.784 1.747-0.145 3.491 0.304 4.952 1.273 0.46 0.366 0.804 0.857 0.99 1.415h7.321c-0.053-0.919-0.274-1.82-0.652-2.659-1.753-3.565-5.829-5.688-12.76-5.688-6.028 0-10.073 1.839-12.308 4.613-1.476 2.003-2.234 4.445-2.151 6.932-0.096 2.543 0.643 5.048 2.102 7.133 2.208 2.863 6.141 4.271 10.867 4.271 3.142 0.219 6.262-0.661 8.827-2.489l0.199 2.149h6.082v-13.157h-14.771v4.781zM101.341 4.435c-9.789 0-14.939 4.64-14.939 11.453 0 7.697 5.403 11.601 14.939 11.601 10.498 0 14.912-4.527 14.912-11.601 0-7.178-4.98-11.451-14.912-11.451v-0.002zM101.314 10.207c0.649-0.002 1.297 0.035 1.942 0.111l-8.541 8.546c-0.393-0.908-0.584-1.89-0.561-2.878-0.007-3.485 1.755-5.779 7.16-5.779zM101.341 21.807c-0.659 0.003-1.318-0.036-1.972-0.115l8.618-8.62c0.405 0.915 0.599 1.909 0.568 2.909 0.003 3.387-1.607 5.827-7.213 5.827v-0.002z"></path>
</symbol>
<symbol id="icon-partnerlogo2" viewBox="0 0 141 32">
<path d="M41.169 21.194c0 0.677-0.139 1.198-0.417 1.561-0.271 0.364-0.724 0.545-1.358 0.545-0.599 0-1.023-0.182-1.273-0.545-0.242-0.364-0.364-0.884-0.364-1.561v-11.305c0-0.677 0.121-1.198 0.364-1.561 0.25-0.364 0.674-0.545 1.273-0.545 0.635 0 1.087 0.182 1.358 0.545 0.278 0.364 0.417 0.884 0.417 1.561v11.305z"></path>
<path d="M42.205 17.911c0-0.756 0.121-1.469 0.364-2.139 0.249-0.677 0.62-1.269 1.112-1.775 0.499-0.506 1.119-0.909 1.861-1.209 0.749-0.3 1.626-0.449 2.631-0.449 0.963 0 1.815 0.139 2.556 0.417s1.365 0.667 1.872 1.166c0.506 0.492 0.891 1.080 1.155 1.765 0.264 0.677 0.396 1.419 0.396 2.225 0 0.749-0.125 1.458-0.374 2.128-0.25 0.663-0.624 1.248-1.123 1.754-0.499 0.499-1.123 0.898-1.871 1.198-0.749 0.292-1.619 0.438-2.61 0.438-0.977 0-1.84-0.139-2.588-0.417-0.742-0.285-1.365-0.674-1.872-1.166-0.499-0.499-0.877-1.084-1.134-1.754-0.25-0.677-0.374-1.405-0.374-2.182zM45.767 17.911c0 0.471 0.043 0.92 0.128 1.348 0.086 0.421 0.221 0.791 0.406 1.112 0.193 0.321 0.442 0.577 0.749 0.77 0.307 0.185 0.681 0.278 1.123 0.278 0.406 0 0.759-0.086 1.059-0.257 0.307-0.171 0.556-0.41 0.749-0.717 0.2-0.307 0.349-0.674 0.449-1.102 0.1-0.435 0.15-0.913 0.15-1.433 0-0.471-0.046-0.916-0.139-1.337-0.086-0.428-0.225-0.802-0.417-1.123-0.193-0.328-0.442-0.585-0.749-0.77-0.299-0.193-0.667-0.289-1.102-0.289s-0.806 0.093-1.112 0.278c-0.307 0.185-0.556 0.438-0.749 0.759s-0.332 0.695-0.417 1.123c-0.086 0.428-0.128 0.881-0.128 1.358z"></path>
<path d="M62.931 21.237c-0.193 0.356-0.428 0.66-0.706 0.909-0.271 0.25-0.574 0.456-0.909 0.62-0.328 0.157-0.681 0.274-1.059 0.353-0.371 0.071-0.752 0.107-1.144 0.107-0.656 0-1.255-0.118-1.797-0.353s-1.009-0.574-1.401-1.016c-0.385-0.449-0.684-0.998-0.898-1.647s-0.321-1.39-0.321-2.225c0-0.784 0.1-1.519 0.3-2.203s0.488-1.28 0.866-1.786c0.385-0.506 0.856-0.906 1.412-1.198s1.191-0.439 1.904-0.439c0.813 0 1.533 0.157 2.16 0.471 0.635 0.314 1.18 0.827 1.636 1.54v-0.278c0-0.513 0.139-0.898 0.417-1.155 0.285-0.264 0.677-0.396 1.177-0.396 0.299 0 0.553 0.050 0.759 0.15 0.207 0.093 0.371 0.235 0.492 0.428 0.121 0.185 0.207 0.417 0.257 0.695 0.057 0.271 0.086 0.581 0.086 0.93v7.166c0 0.87-0.11 1.647-0.332 2.331-0.214 0.684-0.549 1.262-1.005 1.733s-1.041 0.827-1.754 1.070c-0.713 0.25-1.562 0.374-2.545 0.374-0.692 0-1.305-0.032-1.84-0.096-0.528-0.057-0.984-0.146-1.369-0.267-0.385-0.136-0.677-0.285-0.877-0.449-0.193-0.164-0.289-0.378-0.289-0.642 0-0.15 0.021-0.292 0.064-0.428s0.107-0.257 0.192-0.364c0.093-0.1 0.21-0.182 0.353-0.246 0.15-0.057 0.331-0.086 0.545-0.086 0.228 0 0.456 0.014 0.684 0.043 0.235 0.029 0.478 0.057 0.727 0.086 0.257 0.036 0.524 0.068 0.802 0.096 0.285 0.029 0.592 0.043 0.92 0.043 0.392 0 0.742-0.039 1.048-0.118s0.567-0.218 0.781-0.417c0.214-0.2 0.378-0.467 0.492-0.802 0.114-0.328 0.171-0.749 0.171-1.262v-1.273zM62.931 17.911c0-0.521-0.039-0.995-0.118-1.423-0.071-0.428-0.196-0.791-0.374-1.091-0.178-0.307-0.417-0.542-0.717-0.706-0.3-0.171-0.674-0.257-1.123-0.257-0.442 0-0.809 0.089-1.102 0.267-0.285 0.178-0.513 0.424-0.684 0.738s-0.292 0.681-0.364 1.102c-0.064 0.421-0.096 0.87-0.096 1.348 0 1.091 0.193 1.911 0.578 2.46s0.945 0.824 1.679 0.824c0.342-0.007 0.653-0.071 0.931-0.193 0.285-0.128 0.531-0.324 0.738-0.588s0.367-0.599 0.481-1.005c0.114-0.406 0.171-0.898 0.171-1.476z"></path>
<path d="M67.143 17.911c0-0.756 0.121-1.469 0.364-2.139 0.25-0.677 0.62-1.269 1.112-1.775 0.499-0.506 1.119-0.909 1.861-1.209 0.749-0.3 1.626-0.449 2.631-0.449 0.963 0 1.815 0.139 2.556 0.417s1.365 0.667 1.872 1.166c0.506 0.492 0.891 1.080 1.155 1.765 0.264 0.677 0.396 1.419 0.396 2.225 0 0.749-0.125 1.458-0.374 2.128-0.25 0.663-0.624 1.248-1.123 1.754-0.499 0.499-1.123 0.898-1.872 1.198-0.749 0.292-1.618 0.438-2.61 0.438-0.977 0-1.84-0.139-2.588-0.417-0.742-0.285-1.365-0.674-1.872-1.166-0.499-0.499-0.877-1.084-1.134-1.754-0.25-0.677-0.374-1.405-0.374-2.182zM70.704 17.911c0 0.471 0.043 0.92 0.129 1.348 0.086 0.421 0.221 0.791 0.406 1.112 0.192 0.321 0.442 0.577 0.749 0.77 0.307 0.185 0.681 0.278 1.123 0.278 0.406 0 0.759-0.086 1.059-0.257 0.307-0.171 0.556-0.41 0.749-0.717 0.2-0.307 0.349-0.674 0.449-1.102 0.1-0.435 0.15-0.913 0.15-1.433 0-0.471-0.046-0.916-0.139-1.337-0.086-0.428-0.225-0.802-0.417-1.123-0.192-0.328-0.442-0.585-0.749-0.77-0.299-0.193-0.667-0.289-1.102-0.289s-0.806 0.093-1.112 0.278c-0.307 0.185-0.556 0.438-0.749 0.759s-0.332 0.695-0.417 1.123c-0.086 0.428-0.129 0.881-0.129 1.358z"></path>
<path d="M83.676 8.734c0 0.235-0.053 0.446-0.16 0.631-0.107 0.178-0.246 0.328-0.417 0.449s-0.371 0.214-0.599 0.278c-0.221 0.057-0.449 0.086-0.684 0.086-0.249 0-0.488-0.032-0.716-0.096-0.221-0.064-0.417-0.157-0.588-0.278-0.171-0.128-0.307-0.282-0.406-0.46s-0.15-0.381-0.15-0.61c0-0.207 0.046-0.396 0.139-0.567 0.1-0.178 0.232-0.332 0.396-0.46s0.36-0.228 0.588-0.299 0.478-0.107 0.749-0.107c0.235 0 0.463 0.032 0.684 0.096 0.228 0.064 0.428 0.157 0.599 0.278s0.307 0.271 0.406 0.449c0.107 0.178 0.16 0.381 0.16 0.61zM83.515 21.194c0 0.677-0.139 1.198-0.417 1.561-0.271 0.364-0.724 0.545-1.358 0.545-0.599 0-1.023-0.182-1.273-0.545-0.242-0.364-0.364-0.884-0.364-1.561v-6.545c0-0.677 0.121-1.198 0.364-1.562 0.249-0.364 0.674-0.545 1.273-0.545 0.635 0 1.087 0.182 1.358 0.545 0.278 0.364 0.417 0.884 0.417 1.562v6.545z"></path>
<path d="M88.434 17.889c0 0.478 0.036 0.923 0.107 1.337 0.078 0.413 0.207 0.777 0.385 1.091 0.186 0.307 0.428 0.549 0.727 0.727 0.307 0.178 0.684 0.267 1.134 0.267 0.413 0 0.759-0.086 1.038-0.257 0.285-0.178 0.513-0.421 0.684-0.727 0.171-0.314 0.292-0.681 0.363-1.102 0.078-0.421 0.118-0.877 0.118-1.369 0-0.392-0.028-0.791-0.086-1.198-0.057-0.414-0.163-0.788-0.32-1.123s-0.374-0.61-0.653-0.824c-0.278-0.214-0.642-0.321-1.091-0.321s-0.831 0.071-1.144 0.214c-0.307 0.143-0.556 0.36-0.749 0.652-0.185 0.292-0.317 0.66-0.396 1.102-0.079 0.435-0.118 0.945-0.118 1.529zM88.423 14.649c0.178-0.378 0.406-0.709 0.684-0.995s0.585-0.524 0.92-0.717c0.335-0.193 0.684-0.335 1.048-0.428 0.371-0.1 0.738-0.15 1.101-0.15 0.656 0 1.249 0.146 1.776 0.439s0.977 0.692 1.347 1.198c0.378 0.499 0.667 1.091 0.867 1.775 0.199 0.677 0.299 1.405 0.299 2.182 0 0.806-0.108 1.544-0.321 2.214-0.206 0.67-0.503 1.248-0.888 1.733-0.378 0.478-0.834 0.852-1.369 1.123-0.528 0.271-1.115 0.406-1.764 0.406-0.799 0-1.512-0.185-2.139-0.556s-1.148-0.891-1.561-1.561v3.85c0 0.677-0.139 1.198-0.417 1.561-0.271 0.364-0.724 0.545-1.358 0.545-0.599 0-1.023-0.182-1.273-0.545-0.242-0.364-0.364-0.884-0.364-1.561v-10.513c0-0.677 0.121-1.198 0.364-1.561 0.249-0.364 0.674-0.546 1.273-0.546 0.635 0 1.087 0.182 1.358 0.546 0.278 0.364 0.417 0.884 0.417 1.561z"></path>
<path d="M100.229 15.408c0 0.278 0.121 0.495 0.364 0.652 0.242 0.15 0.577 0.275 1.006 0.374 0.406 0.093 0.823 0.182 1.251 0.267s0.846 0.186 1.251 0.3c0.406 0.107 0.788 0.235 1.145 0.385s0.669 0.339 0.941 0.567c0.272 0.221 0.485 0.492 0.642 0.813 0.157 0.314 0.235 0.692 0.235 1.134 0 0.556-0.113 1.052-0.341 1.487-0.229 0.428-0.553 0.791-0.974 1.091-0.413 0.299-0.909 0.531-1.487 0.695s-1.216 0.25-1.915 0.257c-0.662 0-1.301-0.043-1.914-0.128-0.613-0.078-1.158-0.203-1.637-0.374-0.469-0.171-0.847-0.381-1.134-0.631-0.284-0.257-0.427-0.556-0.427-0.898 0-0.3 0.096-0.531 0.288-0.695s0.438-0.246 0.739-0.246c0.113 0 0.249 0.021 0.406 0.064s0.327 0.096 0.513 0.16c0.185 0.064 0.381 0.135 0.589 0.214 0.213 0.071 0.434 0.135 0.662 0.192 0.285 0.078 0.578 0.143 0.877 0.193 0.307 0.043 0.621 0.064 0.943 0.064 0.199 0 0.395-0.018 0.588-0.053 0.192-0.043 0.364-0.103 0.514-0.182 0.157-0.086 0.284-0.193 0.385-0.321 0.099-0.128 0.16-0.285 0.181-0.471 0.021-0.043 0.040-0.086 0.053-0.128s0.021-0.093 0.021-0.15c0-0.2-0.093-0.378-0.278-0.535-0.177-0.157-0.431-0.282-0.759-0.374-0.549-0.128-1.073-0.246-1.572-0.353s-0.962-0.221-1.391-0.342c-0.421-0.121-0.806-0.26-1.155-0.417-0.342-0.157-0.635-0.349-0.878-0.577-0.235-0.228-0.421-0.503-0.556-0.824-0.129-0.321-0.193-0.709-0.193-1.166 0-0.492 0.111-0.931 0.332-1.316 0.228-0.392 0.553-0.72 0.974-0.984s0.93-0.463 1.53-0.599c0.598-0.143 1.275-0.214 2.031-0.214 1.354 0 2.385 0.164 3.090 0.492 0.714 0.321 1.071 0.742 1.071 1.262 0 0.292-0.097 0.517-0.29 0.674-0.192 0.15-0.424 0.225-0.694 0.225-0.144 0-0.293-0.025-0.45-0.075-0.149-0.057-0.332-0.118-0.545-0.182-0.214-0.071-0.471-0.132-0.77-0.182-0.292-0.057-0.656-0.086-1.091-0.086-0.329 0-0.628 0.014-0.899 0.043-0.264 0.028-0.492 0.078-0.685 0.15-0.185 0.071-0.332 0.168-0.438 0.289-0.1 0.121-0.149 0.274-0.149 0.46z"></path>
<path d="M111.404 19.333c0 0.335 0.043 0.628 0.128 0.877 0.092 0.25 0.217 0.46 0.374 0.631 0.157 0.164 0.338 0.289 0.545 0.374 0.214 0.078 0.443 0.118 0.685 0.118 0.286 0 0.561-0.043 0.824-0.128s0.496-0.218 0.695-0.396c0.207-0.178 0.37-0.403 0.492-0.674s0.182-0.588 0.182-0.952v-4.535c0-0.677 0.121-1.198 0.363-1.561 0.25-0.364 0.675-0.546 1.273-0.546 0.634 0 1.087 0.182 1.359 0.546 0.278 0.364 0.417 0.884 0.417 1.561v6.546c0 0.677-0.139 1.198-0.417 1.561-0.272 0.364-0.724 0.546-1.359 0.546-0.598 0-1.023-0.182-1.273-0.546-0.241-0.364-0.363-0.884-0.363-1.561-0.15 0.328-0.346 0.627-0.589 0.898-0.236 0.271-0.513 0.506-0.835 0.706-0.313 0.192-0.662 0.342-1.047 0.449-0.378 0.107-0.788 0.16-1.231 0.16-0.477 0-0.937-0.082-1.38-0.246-0.434-0.171-0.819-0.421-1.154-0.749-0.335-0.335-0.603-0.749-0.803-1.241s-0.299-1.066-0.299-1.722v-4.802c0-0.677 0.121-1.198 0.363-1.561 0.25-0.364 0.674-0.546 1.273-0.546 0.634 0 1.087 0.182 1.359 0.546 0.278 0.364 0.417 0.884 0.417 1.561v4.684z"></path>
<path d="M120.289 14.649c0-0.677 0.121-1.198 0.365-1.561 0.248-0.364 0.673-0.546 1.272-0.546 0.635 0 1.087 0.182 1.359 0.546 0.277 0.364 0.417 0.884 0.417 1.561 0.143-0.342 0.335-0.652 0.578-0.93 0.249-0.285 0.531-0.528 0.844-0.727 0.322-0.2 0.667-0.353 1.039-0.46 0.37-0.114 0.755-0.171 1.155-0.171 0.37 0 0.734 0.050 1.091 0.15 0.363 0.093 0.699 0.246 1.006 0.46 0.313 0.207 0.588 0.471 0.823 0.791s0.417 0.706 0.546 1.155c0.22-0.478 0.481-0.881 0.78-1.209s0.625-0.592 0.974-0.791c0.349-0.2 0.714-0.342 1.091-0.428 0.386-0.086 0.77-0.128 1.155-0.128 0.457 0 0.891 0.082 1.305 0.246 0.421 0.164 0.787 0.414 1.102 0.749 0.321 0.328 0.574 0.745 0.759 1.251 0.192 0.499 0.288 1.084 0.288 1.754v4.834c0 0.677-0.139 1.198-0.417 1.561-0.27 0.364-0.723 0.545-1.358 0.545-0.599 0-1.023-0.182-1.272-0.545-0.243-0.364-0.365-0.884-0.365-1.561v-4.684c0-0.321-0.043-0.606-0.128-0.856-0.085-0.257-0.207-0.471-0.364-0.642-0.149-0.178-0.328-0.31-0.535-0.396-0.206-0.093-0.428-0.139-0.662-0.139-0.293 0-0.57 0.046-0.834 0.139s-0.495 0.235-0.695 0.428c-0.193 0.193-0.35 0.438-0.471 0.738-0.114 0.299-0.171 0.66-0.171 1.080v4.332c0 0.677-0.14 1.198-0.417 1.561-0.272 0.364-0.723 0.545-1.359 0.545-0.598 0-1.023-0.182-1.272-0.545-0.242-0.364-0.364-0.884-0.364-1.561v-4.481c0-0.734-0.153-1.29-0.459-1.668-0.301-0.378-0.711-0.567-1.231-0.567-0.306 0-0.593 0.050-0.856 0.15s-0.492 0.246-0.685 0.438c-0.192 0.193-0.346 0.431-0.46 0.716-0.107 0.285-0.16 0.613-0.16 0.984v4.428c0 0.677-0.14 1.198-0.417 1.561-0.272 0.364-0.723 0.545-1.359 0.545-0.599 0-1.024-0.182-1.272-0.545-0.243-0.364-0.365-0.884-0.365-1.561v-6.545z"></path>
<path d="M15.515 21.476c-3.024 0-5.476-2.452-5.476-5.476s2.452-5.476 5.476-5.476c3.024 0 5.476 2.452 5.476 5.476s-2.452 5.476-5.476 5.476z"></path>
<path d="M4.907 17.871c-1.587 0.28-2.675 1.813-2.065 3.305 0.85 2.083 2.207 3.938 3.966 5.388 2.515 2.073 5.688 3.181 8.947 3.124s6.391-1.275 8.832-3.435c1.707-1.51 2.998-3.412 3.776-5.523 0.557-1.512-0.584-3.006-2.18-3.23s-3.028 0.937-3.816 2.343c-0.427 0.762-0.982 1.453-1.646 2.041-1.401 1.239-3.198 1.938-5.067 1.971s-3.69-0.603-5.133-1.793c-0.685-0.564-1.263-1.236-1.716-1.982-0.837-1.377-2.309-2.488-3.896-2.208z"></path>
<path d="M29.099 17.711c0.070-0.561 0.106-1.131 0.106-1.711 0-7.561-6.129-13.69-13.69-13.69s-13.69 6.129-13.69 13.69c0 0.743 0.059 1.473 0.173 2.185 0.629-0.861 1.61-1.475 2.67-1.662 1.147-0.202 2.189 0.076 3.071 0.596-0.052-0.365-0.079-0.739-0.079-1.118 0-4.338 3.517-7.855 7.855-7.855s7.855 3.517 7.855 7.855c0 0.286-0.015 0.568-0.045 0.847 0.863-0.551 1.895-0.865 3.048-0.703 1.066 0.15 2.068 0.729 2.726 1.567z"></path>
</symbol>
<symbol id="icon-partnerlogo3" viewBox="0 0 25 32">
<path d="M16.428 0.485c-8.569 0-15.515 6.946-15.515 15.515 8.569 0 15.515-6.946 15.515-15.515z"></path>
<path d="M16.428 31.515c8.569 0 15.515-6.946 15.515-15.515-8.569 0-15.515 6.946-15.515 15.515z"></path>
<path d="M16.428 0.485c8.569 0 15.515 6.946 15.515 15.515-8.569 0-15.515-6.946-15.515-15.515z"></path>
<path d="M16.428 31.515c-8.569 0-15.515-6.946-15.515-15.515 8.569 0 15.515 6.946 15.515 15.515z"></path>
</symbol>
</defs>
</svg>