<svg aria-hidden="true" style="width: 0; height: 0; position: absolute; overflow: hidden" xmlns="http://www.w3.org/2000/svg" viewBox="0 0 0 0">
<defs>
   <symbol id="icon-menu" viewBox="0 0 32 32">
<path height="1px" d="M2 6h28v6h-28zM2 14h28v6h-28zM2 22h28v6h-28z"></path>
</symbol>
<symbol id="icon-partnerlogo1" viewBox="0 0 256 32">
<path d="M127.483 27.577h-8.623v-23.053h8.623v23.053zM119.702 26.735h6.939v-21.369h-6.939v21.369zM139.481 27.577h-8.45v-23.053h17.654c2.529-0.205 5.048 0.505 7.097 2.001 0.882 0.807 1.566 1.807 1.998 2.923s0.601 2.315 0.493 3.506c0.126 2.058-0.529 4.088-1.834 5.684-1.544 1.772-4.115 2.685-7.638 2.717-0.888 0.024-7.539 0-9.315 0l-0.005 6.223zM131.869 26.735h6.771v-6.232h0.423c0.086 0 8.721 0.027 9.72 0 3.283-0.029 5.642-0.842 7.021-2.43 1.162-1.444 1.739-3.272 1.617-5.122 0.104-1.067-0.040-2.144-0.42-3.147s-0.985-1.904-1.77-2.635c-1.9-1.364-4.226-2.004-6.557-1.805h-16.8l-0.005 21.371zM146.897 16.175h-8.315v-6.275h8.371c0.593-0.082 1.198-0.013 1.757 0.201s1.056 0.566 1.443 1.023c0.351 0.584 0.517 1.261 0.475 1.942 0.031 0.632-0.105 1.261-0.396 1.822-0.399 0.481-0.916 0.852-1.5 1.076s-1.216 0.294-1.835 0.204v0.007zM139.424 15.333h7.473c1.381 0 2.237-0.288 2.616-0.881 0.209-0.431 0.303-0.908 0.275-1.386 0.037-0.502-0.072-1.004-0.313-1.445l-0.010-0.015c-0.401-0.589-1.197-0.864-2.511-0.864h-7.528v4.591zM173.642 27.918c-7.562 0-12.076-1.878-13.795-5.74-0.281-0.746-0.472-1.523-0.569-2.314l-0.074-0.485h8.997l0.059 0.354c0.069 0.359 0.222 0.697 0.445 0.987 0.355 0.429 1.541 1.15 5.475 1.15 4.729 0 4.729-0.83 4.729-1.277 0-0.753-0.547-1.011-4.404-1.421l-0.733-0.069c-1.452-0.136-3.288-0.31-4.126-0.382-7.074-0.64-10.232-2.838-10.232-7.124 0-4.502 5.374-7.411 13.693-7.411 6.786 0 11.158 1.789 12.992 5.32 0.435 0.822 0.728 1.711 0.864 2.631l0.059 0.473h-9.007l-0.037-0.381c-0.035-0.297-0.162-0.577-0.364-0.798-0.337-0.451-1.401-1.197-4.706-1.197-4.057 0-4.616 0.519-4.616 1.078 0 0.746 1.282 1.011 5.389 1.45 1.713 0.14 4.467 0.423 5.41 0.537 5.93 0.643 8.576 2.787 8.576 6.954 0.002 3.495-2.432 7.665-14.024 7.665zM160.187 20.221c0.084 0.555 0.23 1.1 0.433 1.624 1.566 3.518 5.827 5.231 13.022 5.231 6.016 0 13.189-1.179 13.189-6.823 0-3.693-2.341-5.523-7.83-6.117-0.943-0.115-3.68-0.396-5.389-0.537-4.379-0.475-6.159-0.728-6.159-2.287 0-1.613 1.918-1.92 5.459-1.92 2.797 0 4.605 0.505 5.371 1.524 0.209 0.251 0.367 0.541 0.465 0.852h7.299c-0.147-0.651-0.379-1.281-0.691-1.871-1.684-3.232-5.799-4.869-12.246-4.869-7.806 0-12.851 2.579-12.851 6.568 0 3.806 2.831 5.686 9.464 6.285 0.842 0.072 2.676 0.246 4.131 0.384l0.738 0.069c3.582 0.377 5.162 0.613 5.162 2.259 0 1.772-2.043 2.119-5.571 2.119-3.264 0-5.325-0.49-6.122-1.455-0.246-0.308-0.431-0.659-0.546-1.036h-7.328zM203.667 27.889c-8.792 0-13.642-3.555-13.642-10.013v-13.352h8.509v13.352c0 2.215 1.982 3.485 5.437 3.485 3.301 0 5.351-1.325 5.351-3.456v-13.381h8.421v14.060c0.008 5.913-5.127 9.305-14.080 9.305h0.005zM190.867 5.366v12.51c0 7.98 8.013 9.171 12.8 9.171 4.948 0 13.246-1.1 13.246-8.463v-13.218h-6.737v12.539c0 2.611-2.432 4.298-6.193 4.298-3.931 0-6.279-1.617-6.279-4.327v-12.51h-6.838zM253.427 27.577h-8.030v-10.408l-4.554 10.408h-7.005l-4.507-10.388v10.388h-8.059v-23.053h10.6l5.507 12.711 5.773-12.711h10.284l-0.010 23.053zM246.238 26.735h6.346v-21.369h-8.896l-6.336 13.944-6.040-13.944h-9.206v21.369h6.375v-13.598l5.895 13.603h5.895l5.957-13.583 0.010 13.578zM10.196 4.945h-7.67v22.211h21.194v-5.913h-13.524v-16.298zM39.202 4.44c-9.79 0-14.939 4.64-14.939 11.453 0 7.697 5.405 11.601 14.939 11.601 10.496 0 14.91-4.527 14.91-11.601 0-7.183-4.98-11.456-14.91-11.456v0.003zM39.173 10.212c0.666-0.003 1.333 0.036 1.994 0.116l-8.574 8.574c-0.406-0.918-0.604-1.914-0.579-2.917 0-3.485 1.755-5.777 7.16-5.777v0.003zM39.202 21.812c-0.642 0.003-1.284-0.033-1.922-0.108l8.589-8.589c0.391 0.903 0.578 1.88 0.547 2.863 0 3.39-1.617 5.831-7.215 5.831v0.003zM69.309 18.781h7.894c-0.116 0.548-0.358 1.061-0.707 1.499-1.637 1.333-3.725 1.982-5.829 1.811-1.059 0.113-2.13-0.002-3.14-0.339s-1.937-0.887-2.716-1.613c-0.798-1.171-1.177-2.577-1.076-3.99-0.129-1.481 0.283-2.958 1.16-4.158 1.103-1.246 2.971-1.784 5.716-1.784 1.747-0.145 3.491 0.304 4.952 1.273 0.46 0.366 0.804 0.857 0.99 1.415h7.321c-0.053-0.919-0.274-1.82-0.652-2.659-1.753-3.565-5.829-5.688-12.76-5.688-6.028 0-10.073 1.839-12.308 4.613-1.476 2.003-2.234 4.445-2.151 6.932-0.096 2.543 0.643 5.048 2.102 7.133 2.208 2.863 6.141 4.271 10.867 4.271 3.142 0.219 6.262-0.661 8.827-2.489l0.199 2.149h6.082v-13.157h-14.771v4.781zM101.341 4.435c-9.789 0-14.939 4.64-14.939 11.453 0 7.697 5.403 11.601 14.939 11.601 10.498 0 14.912-4.527 14.912-11.601 0-7.178-4.98-11.451-14.912-11.451v-0.002zM101.314 10.207c0.649-0.002 1.297 0.035 1.942 0.111l-8.541 8.546c-0.393-0.908-0.584-1.89-0.561-2.878-0.007-3.485 1.755-5.779 7.16-5.779zM101.341 21.807c-0.659 0.003-1.318-0.036-1.972-0.115l8.618-8.62c0.405 0.915 0.599 1.909 0.568 2.909 0.003 3.387-1.607 5.827-7.213 5.827v-0.002z"></path>
</symbol>
<symbol id="icon-partnerlogo2" viewBox="0 0 142 32">
<path d="M41.877 21.194c0 0.677-0.139 1.198-0.417 1.561-0.271 0.364-0.724 0.545-1.358 0.545-0.599 0-1.023-0.182-1.273-0.545-0.242-0.364-0.364-0.884-0.364-1.561v-11.305c0-0.677 0.121-1.198 0.364-1.561 0.25-0.364 0.674-0.545 1.273-0.545 0.635 0 1.087 0.182 1.358 0.545 0.278 0.364 0.417 0.884 0.417 1.561v11.305z"></path>
<path d="M42.912 17.911c0-0.756 0.121-1.469 0.364-2.139 0.249-0.677 0.62-1.269 1.112-1.775 0.499-0.506 1.12-0.909 1.861-1.209 0.749-0.3 1.626-0.449 2.631-0.449 0.963 0 1.815 0.139 2.556 0.417s1.365 0.667 1.872 1.166c0.506 0.492 0.891 1.080 1.155 1.765 0.264 0.677 0.396 1.419 0.396 2.225 0 0.749-0.125 1.458-0.374 2.128-0.249 0.663-0.624 1.248-1.123 1.754-0.499 0.499-1.123 0.898-1.872 1.198-0.749 0.292-1.619 0.438-2.61 0.438-0.977 0-1.84-0.139-2.588-0.417-0.742-0.285-1.365-0.674-1.871-1.166-0.499-0.499-0.877-1.084-1.134-1.754-0.25-0.677-0.374-1.405-0.374-2.182zM46.474 17.911c0 0.471 0.043 0.92 0.128 1.348 0.086 0.421 0.221 0.791 0.406 1.112 0.193 0.321 0.442 0.577 0.749 0.77 0.307 0.185 0.681 0.278 1.123 0.278 0.406 0 0.759-0.086 1.059-0.257 0.307-0.171 0.556-0.41 0.749-0.717 0.2-0.307 0.349-0.674 0.449-1.102 0.1-0.435 0.15-0.913 0.15-1.433 0-0.471-0.046-0.916-0.139-1.337-0.086-0.428-0.225-0.802-0.417-1.123-0.193-0.328-0.442-0.585-0.749-0.77-0.299-0.193-0.667-0.289-1.102-0.289s-0.806 0.093-1.112 0.278c-0.307 0.185-0.556 0.438-0.749 0.759s-0.332 0.695-0.417 1.123c-0.086 0.428-0.128 0.881-0.128 1.358z"></path>
<path d="M63.638 21.237c-0.193 0.356-0.428 0.66-0.706 0.909-0.271 0.25-0.574 0.456-0.909 0.62-0.328 0.157-0.681 0.274-1.059 0.353-0.371 0.071-0.752 0.107-1.144 0.107-0.656 0-1.255-0.118-1.797-0.353s-1.009-0.574-1.401-1.016c-0.385-0.449-0.684-0.998-0.898-1.647s-0.321-1.39-0.321-2.225c0-0.784 0.1-1.519 0.3-2.203s0.488-1.28 0.866-1.786c0.385-0.506 0.856-0.906 1.412-1.198s1.191-0.439 1.904-0.439c0.813 0 1.533 0.157 2.16 0.471 0.635 0.314 1.18 0.827 1.636 1.54v-0.278c0-0.513 0.139-0.898 0.417-1.155 0.285-0.264 0.677-0.396 1.176-0.396 0.299 0 0.553 0.050 0.759 0.15 0.207 0.093 0.371 0.235 0.492 0.428 0.121 0.185 0.207 0.417 0.257 0.695 0.057 0.271 0.085 0.581 0.085 0.93v7.166c0 0.87-0.11 1.647-0.331 2.331-0.214 0.684-0.549 1.262-1.005 1.733s-1.041 0.827-1.754 1.070c-0.713 0.25-1.562 0.374-2.545 0.374-0.692 0-1.305-0.032-1.84-0.096-0.528-0.057-0.984-0.146-1.369-0.267-0.385-0.136-0.677-0.285-0.877-0.449-0.192-0.164-0.289-0.378-0.289-0.642 0-0.15 0.021-0.292 0.064-0.428s0.107-0.257 0.193-0.364c0.093-0.1 0.21-0.182 0.353-0.246 0.15-0.057 0.331-0.086 0.545-0.086 0.228 0 0.456 0.014 0.684 0.043 0.235 0.029 0.478 0.057 0.727 0.086 0.257 0.036 0.524 0.068 0.802 0.096 0.285 0.029 0.592 0.043 0.92 0.043 0.392 0 0.742-0.039 1.048-0.118s0.567-0.218 0.781-0.417c0.214-0.2 0.378-0.467 0.492-0.802 0.114-0.328 0.171-0.749 0.171-1.262v-1.273zM63.638 17.911c0-0.521-0.039-0.995-0.118-1.423-0.071-0.428-0.196-0.791-0.374-1.091-0.178-0.307-0.417-0.542-0.717-0.706-0.3-0.171-0.674-0.257-1.123-0.257-0.442 0-0.809 0.089-1.102 0.267-0.285 0.178-0.513 0.424-0.684 0.738s-0.292 0.681-0.364 1.102c-0.064 0.421-0.096 0.87-0.096 1.348 0 1.091 0.193 1.911 0.577 2.46s0.945 0.824 1.679 0.824c0.342-0.007 0.653-0.071 0.93-0.193 0.285-0.128 0.531-0.324 0.738-0.588s0.367-0.599 0.481-1.005c0.114-0.406 0.171-0.898 0.171-1.476z"></path>
<path d="M67.85 17.911c0-0.756 0.121-1.469 0.364-2.139 0.25-0.677 0.62-1.269 1.112-1.775 0.499-0.506 1.119-0.909 1.861-1.209 0.749-0.3 1.626-0.449 2.631-0.449 0.962 0 1.814 0.139 2.556 0.417s1.365 0.667 1.872 1.166c0.506 0.492 0.891 1.080 1.155 1.765 0.264 0.677 0.396 1.419 0.396 2.225 0 0.749-0.125 1.458-0.374 2.128-0.25 0.663-0.624 1.248-1.123 1.754-0.499 0.499-1.123 0.898-1.872 1.198-0.749 0.292-1.619 0.438-2.61 0.438-0.977 0-1.84-0.139-2.588-0.417-0.742-0.285-1.365-0.674-1.872-1.166-0.499-0.499-0.877-1.084-1.134-1.754-0.249-0.677-0.374-1.405-0.374-2.182zM71.412 17.911c0 0.471 0.043 0.92 0.128 1.348 0.086 0.421 0.221 0.791 0.406 1.112 0.192 0.321 0.442 0.577 0.749 0.77 0.307 0.185 0.681 0.278 1.123 0.278 0.406 0 0.759-0.086 1.059-0.257 0.307-0.171 0.556-0.41 0.749-0.717 0.2-0.307 0.349-0.674 0.449-1.102 0.1-0.435 0.15-0.913 0.15-1.433 0-0.471-0.046-0.916-0.139-1.337-0.085-0.428-0.225-0.802-0.417-1.123-0.192-0.328-0.442-0.585-0.749-0.77-0.299-0.193-0.667-0.289-1.102-0.289s-0.806 0.093-1.112 0.278c-0.307 0.185-0.556 0.438-0.749 0.759s-0.332 0.695-0.417 1.123c-0.086 0.428-0.128 0.881-0.128 1.358z"></path>
<path d="M84.383 8.734c0 0.235-0.053 0.446-0.16 0.631-0.107 0.178-0.246 0.328-0.417 0.449s-0.371 0.214-0.599 0.278c-0.221 0.057-0.449 0.086-0.684 0.086-0.249 0-0.488-0.032-0.716-0.096-0.221-0.064-0.417-0.157-0.588-0.278-0.171-0.128-0.307-0.282-0.406-0.46s-0.15-0.381-0.15-0.61c0-0.207 0.046-0.396 0.139-0.567 0.1-0.178 0.232-0.332 0.396-0.46s0.36-0.228 0.588-0.299 0.478-0.107 0.749-0.107c0.235 0 0.463 0.032 0.684 0.096 0.228 0.064 0.428 0.157 0.599 0.278s0.307 0.271 0.406 0.449c0.107 0.178 0.16 0.381 0.16 0.61zM84.223 21.194c0 0.677-0.139 1.198-0.417 1.561-0.271 0.364-0.724 0.545-1.358 0.545-0.599 0-1.023-0.182-1.273-0.545-0.242-0.364-0.364-0.884-0.364-1.561v-6.545c0-0.677 0.121-1.198 0.364-1.562 0.249-0.364 0.674-0.545 1.273-0.545 0.635 0 1.087 0.182 1.358 0.545 0.278 0.364 0.417 0.884 0.417 1.562v6.545z"></path>
<path d="M89.141 17.889c0 0.478 0.036 0.923 0.107 1.337 0.078 0.413 0.207 0.777 0.385 1.091 0.185 0.307 0.428 0.549 0.727 0.727 0.307 0.178 0.684 0.267 1.134 0.267 0.414 0 0.759-0.086 1.038-0.257 0.285-0.178 0.513-0.421 0.684-0.727 0.171-0.314 0.292-0.681 0.363-1.102 0.079-0.421 0.118-0.877 0.118-1.369 0-0.392-0.028-0.791-0.086-1.198-0.057-0.414-0.163-0.788-0.32-1.123s-0.374-0.61-0.653-0.824c-0.278-0.214-0.642-0.321-1.091-0.321s-0.831 0.071-1.144 0.214c-0.307 0.143-0.556 0.36-0.749 0.652-0.186 0.292-0.317 0.66-0.396 1.102-0.078 0.435-0.118 0.945-0.118 1.529zM89.13 14.649c0.178-0.378 0.406-0.709 0.684-0.995s0.585-0.524 0.92-0.717c0.335-0.193 0.684-0.335 1.048-0.428 0.371-0.1 0.738-0.15 1.101-0.15 0.656 0 1.249 0.146 1.776 0.439s0.977 0.692 1.347 1.198c0.378 0.499 0.667 1.091 0.867 1.775 0.199 0.677 0.299 1.405 0.299 2.182 0 0.806-0.108 1.544-0.321 2.214-0.206 0.67-0.503 1.248-0.888 1.733-0.378 0.478-0.834 0.852-1.369 1.123-0.528 0.271-1.115 0.406-1.764 0.406-0.799 0-1.512-0.185-2.139-0.556s-1.148-0.891-1.561-1.561v3.85c0 0.677-0.139 1.198-0.417 1.561-0.271 0.364-0.724 0.545-1.358 0.545-0.599 0-1.023-0.182-1.273-0.545-0.242-0.364-0.364-0.884-0.364-1.561v-10.513c0-0.677 0.121-1.198 0.364-1.561 0.25-0.364 0.674-0.546 1.273-0.546 0.635 0 1.087 0.182 1.358 0.546 0.278 0.364 0.417 0.884 0.417 1.561z"></path>
<path d="M100.936 15.408c0 0.278 0.122 0.495 0.364 0.652 0.242 0.15 0.578 0.275 1.006 0.374 0.406 0.093 0.823 0.182 1.251 0.267s0.846 0.186 1.252 0.3c0.406 0.107 0.787 0.235 1.144 0.385s0.67 0.339 0.941 0.567c0.272 0.221 0.485 0.492 0.642 0.813 0.157 0.314 0.236 0.692 0.236 1.134 0 0.556-0.114 1.052-0.342 1.487-0.228 0.428-0.552 0.791-0.973 1.091-0.414 0.299-0.91 0.531-1.487 0.695s-1.215 0.25-1.914 0.257c-0.662 0-1.301-0.043-1.915-0.128-0.612-0.078-1.158-0.203-1.636-0.374-0.47-0.171-0.849-0.381-1.134-0.631-0.285-0.257-0.428-0.556-0.428-0.898 0-0.3 0.096-0.531 0.289-0.695s0.438-0.246 0.738-0.246c0.114 0 0.249 0.021 0.406 0.064s0.328 0.096 0.513 0.16c0.185 0.064 0.381 0.135 0.589 0.214 0.213 0.071 0.434 0.135 0.662 0.192 0.286 0.078 0.578 0.143 0.878 0.193 0.306 0.043 0.621 0.064 0.942 0.064 0.199 0 0.396-0.018 0.588-0.053 0.193-0.043 0.365-0.103 0.514-0.182 0.157-0.086 0.285-0.193 0.385-0.321s0.16-0.285 0.182-0.471c0.020-0.043 0.039-0.086 0.052-0.128s0.022-0.093 0.022-0.15c0-0.2-0.093-0.378-0.278-0.535-0.178-0.157-0.433-0.282-0.759-0.374-0.55-0.128-1.073-0.246-1.573-0.353s-0.962-0.221-1.39-0.342c-0.421-0.121-0.807-0.26-1.156-0.417-0.342-0.157-0.634-0.349-0.877-0.577-0.235-0.228-0.421-0.503-0.557-0.824-0.128-0.321-0.192-0.709-0.192-1.166 0-0.492 0.111-0.931 0.331-1.316 0.229-0.392 0.554-0.72 0.975-0.984s0.93-0.463 1.529-0.599c0.598-0.143 1.276-0.214 2.031-0.214 1.355 0 2.385 0.164 3.091 0.492 0.713 0.321 1.070 0.742 1.070 1.262 0 0.292-0.097 0.517-0.289 0.674-0.193 0.15-0.425 0.225-0.695 0.225-0.143 0-0.293-0.025-0.45-0.075-0.149-0.057-0.331-0.118-0.545-0.182-0.214-0.071-0.47-0.132-0.77-0.182-0.292-0.057-0.656-0.086-1.091-0.086-0.328 0-0.627 0.014-0.899 0.043-0.264 0.028-0.492 0.078-0.685 0.15-0.185 0.071-0.331 0.168-0.437 0.289-0.101 0.121-0.15 0.274-0.15 0.46z"></path>
<path d="M112.111 19.333c0 0.335 0.043 0.628 0.129 0.877 0.092 0.25 0.217 0.46 0.374 0.631 0.157 0.164 0.338 0.289 0.545 0.374 0.214 0.078 0.442 0.118 0.684 0.118 0.286 0 0.561-0.043 0.824-0.128s0.496-0.218 0.696-0.396c0.206-0.178 0.37-0.403 0.492-0.674s0.181-0.588 0.181-0.952v-4.535c0-0.677 0.121-1.198 0.364-1.561 0.25-0.364 0.674-0.546 1.273-0.546 0.634 0 1.087 0.182 1.358 0.546 0.278 0.364 0.417 0.884 0.417 1.561v6.546c0 0.677-0.139 1.198-0.417 1.561-0.271 0.364-0.723 0.546-1.358 0.546-0.599 0-1.023-0.182-1.273-0.546-0.242-0.364-0.364-0.884-0.364-1.561-0.149 0.328-0.346 0.627-0.589 0.898-0.236 0.271-0.513 0.506-0.834 0.706-0.314 0.192-0.662 0.342-1.048 0.449-0.377 0.107-0.788 0.16-1.23 0.16-0.478 0-0.938-0.082-1.38-0.246-0.434-0.171-0.82-0.421-1.155-0.749-0.335-0.335-0.602-0.749-0.802-1.241s-0.3-1.066-0.3-1.722v-4.802c0-0.677 0.121-1.198 0.364-1.561 0.249-0.364 0.673-0.546 1.273-0.546 0.634 0 1.086 0.182 1.358 0.546 0.278 0.364 0.417 0.884 0.417 1.561v4.684z"></path>
<path d="M120.996 14.649c0-0.677 0.122-1.198 0.365-1.561 0.249-0.364 0.674-0.546 1.272-0.546 0.635 0 1.088 0.182 1.359 0.546 0.277 0.364 0.417 0.884 0.417 1.561 0.143-0.342 0.335-0.652 0.578-0.93 0.249-0.285 0.531-0.528 0.845-0.727 0.321-0.2 0.667-0.353 1.038-0.46 0.37-0.114 0.755-0.171 1.155-0.171 0.371 0 0.734 0.050 1.091 0.15 0.364 0.093 0.699 0.246 1.006 0.46 0.313 0.207 0.588 0.471 0.823 0.791s0.417 0.706 0.546 1.155c0.221-0.478 0.481-0.881 0.781-1.209s0.625-0.592 0.973-0.791c0.35-0.2 0.714-0.342 1.092-0.428 0.385-0.086 0.769-0.128 1.154-0.128 0.457 0 0.892 0.082 1.305 0.246 0.421 0.164 0.787 0.414 1.102 0.749 0.322 0.328 0.574 0.745 0.759 1.251 0.193 0.499 0.289 1.084 0.289 1.754v4.834c0 0.677-0.139 1.198-0.417 1.561-0.271 0.364-0.724 0.545-1.359 0.545-0.598 0-1.023-0.182-1.272-0.545-0.242-0.364-0.364-0.884-0.364-1.561v-4.684c0-0.321-0.044-0.606-0.128-0.856-0.086-0.257-0.208-0.471-0.365-0.642-0.149-0.178-0.328-0.31-0.534-0.396-0.207-0.093-0.429-0.139-0.663-0.139-0.293 0-0.57 0.046-0.834 0.139s-0.495 0.235-0.695 0.428c-0.193 0.193-0.349 0.438-0.471 0.738-0.113 0.299-0.171 0.66-0.171 1.080v4.332c0 0.677-0.14 1.198-0.417 1.561-0.271 0.364-0.723 0.545-1.359 0.545-0.599 0-1.023-0.182-1.272-0.545-0.242-0.364-0.365-0.884-0.365-1.561v-4.481c0-0.734-0.153-1.29-0.459-1.668-0.301-0.378-0.71-0.567-1.231-0.567-0.306 0-0.593 0.050-0.856 0.15s-0.492 0.246-0.684 0.438c-0.193 0.193-0.346 0.431-0.461 0.716-0.107 0.285-0.16 0.613-0.16 0.984v4.428c0 0.677-0.14 1.198-0.417 1.561-0.271 0.364-0.723 0.545-1.359 0.545-0.598 0-1.023-0.182-1.272-0.545-0.242-0.364-0.365-0.884-0.365-1.561v-6.545z"></path>
<path d="M16.222 21.476c-3.024 0-5.476-2.452-5.476-5.476s2.452-5.476 5.476-5.476c3.024 0 5.476 2.452 5.476 5.476s-2.452 5.476-5.476 5.476z"></path>
<path d="M5.614 17.871c-1.587 0.28-2.675 1.813-2.065 3.305 0.85 2.083 2.207 3.938 3.966 5.388 2.515 2.073 5.688 3.181 8.947 3.124s6.391-1.275 8.832-3.435c1.707-1.51 2.998-3.412 3.776-5.523 0.557-1.512-0.584-3.006-2.18-3.23s-3.028 0.937-3.817 2.343c-0.427 0.762-0.982 1.453-1.646 2.041-1.401 1.239-3.198 1.938-5.067 1.971s-3.69-0.603-5.133-1.793c-0.685-0.564-1.263-1.236-1.716-1.982-0.837-1.377-2.309-2.488-3.896-2.208z"></path>
<path d="M29.806 17.711c0.070-0.561 0.106-1.131 0.106-1.711 0-7.561-6.129-13.69-13.69-13.69s-13.69 6.129-13.69 13.69c0 0.743 0.059 1.473 0.173 2.185 0.629-0.861 1.61-1.475 2.67-1.662 1.147-0.202 2.189 0.076 3.071 0.596-0.052-0.365-0.079-0.739-0.079-1.118 0-4.338 3.517-7.855 7.855-7.855s7.855 3.517 7.855 7.855c0 0.286-0.015 0.568-0.045 0.847 0.863-0.551 1.895-0.865 3.048-0.703 1.066 0.15 2.067 0.729 2.726 1.567z"></path>
</symbol>
<symbol id="icon-partnerlogo3" viewBox="0 0 135 32">
<path d="M38.691 22.982h8.807v-2.508h-6.121v-11.71h-2.686v14.217z"></path>
<path d="M52.79 23.278c1.066 0 2.004-0.237 2.814-0.711 0.816-0.481 1.451-1.142 1.906-1.985 0.461-0.849 0.691-1.827 0.691-2.932 0-1.099-0.227-2.070-0.681-2.913-0.454-0.849-1.089-1.514-1.906-1.994-0.809-0.48-1.751-0.721-2.824-0.721-1.053 0-1.984 0.237-2.794 0.711s-1.445 1.135-1.906 1.985c-0.461 0.842-0.691 1.82-0.691 2.932 0 1.099 0.224 2.073 0.671 2.922 0.454 0.843 1.086 1.504 1.896 1.985s1.751 0.721 2.824 0.721zM52.79 20.77c-0.836 0-1.471-0.28-1.905-0.839-0.428-0.566-0.642-1.326-0.642-2.281 0-0.928 0.204-1.679 0.612-2.251 0.415-0.579 1.060-0.869 1.935-0.869 0.849 0 1.488 0.283 1.915 0.849 0.434 0.566 0.652 1.323 0.652 2.271 0 0.915-0.214 1.665-0.642 2.251-0.421 0.579-1.063 0.869-1.925 0.869z"></path>
<path d="M63.511 23.278c0.5 0 0.961-0.059 1.382-0.178 0.428-0.119 0.816-0.286 1.165-0.504v1.076c0.013 0.395-0.089 0.724-0.306 0.987-0.211 0.27-0.494 0.471-0.849 0.602-0.356 0.138-0.734 0.207-1.135 0.207-0.375 0-0.724-0.082-1.047-0.247-0.316-0.165-0.559-0.405-0.731-0.721l-2.488 1.205c0.408 0.691 0.991 1.247 1.748 1.669 0.757 0.428 1.59 0.642 2.498 0.642 0.783 0 1.511-0.105 2.182-0.316 0.671-0.204 1.237-0.517 1.698-0.938 0.467-0.421 0.787-0.958 0.958-1.609 0.059-0.23 0.099-0.464 0.118-0.701 0.026-0.23 0.039-0.477 0.039-0.74v-11.394h-2.35v0.592c-0.362-0.283-0.773-0.5-1.234-0.652-0.454-0.158-0.958-0.237-1.511-0.237-1.020 0-1.909 0.244-2.666 0.731s-1.346 1.155-1.767 2.004c-0.415 0.842-0.622 1.807-0.622 2.893 0 1.066 0.204 2.024 0.612 2.873 0.415 0.849 0.991 1.52 1.728 2.014s1.596 0.74 2.577 0.74zM63.946 20.889c-0.579 0-1.053-0.145-1.422-0.434s-0.642-0.678-0.819-1.165c-0.178-0.494-0.267-1.040-0.267-1.639 0-0.593 0.092-1.132 0.276-1.619 0.184-0.494 0.467-0.885 0.849-1.175 0.388-0.296 0.882-0.444 1.481-0.444 0.842 0 1.445 0.3 1.807 0.899 0.362 0.592 0.543 1.372 0.543 2.34s-0.184 1.751-0.553 2.35c-0.362 0.592-0.994 0.889-1.896 0.889z"></path>
<path d="M75.123 23.278c1.066 0 2.004-0.237 2.814-0.711 0.816-0.481 1.451-1.142 1.905-1.985 0.461-0.849 0.691-1.827 0.691-2.932 0-1.099-0.227-2.070-0.681-2.913-0.454-0.849-1.089-1.514-1.905-1.994-0.809-0.48-1.751-0.721-2.824-0.721-1.053 0-1.984 0.237-2.794 0.711s-1.445 1.135-1.906 1.985c-0.461 0.842-0.691 1.82-0.691 2.932 0 1.099 0.224 2.073 0.671 2.922 0.454 0.843 1.086 1.504 1.896 1.985s1.751 0.721 2.824 0.721zM75.123 20.77c-0.836 0-1.471-0.28-1.906-0.839-0.428-0.566-0.642-1.326-0.642-2.281 0-0.928 0.204-1.679 0.612-2.251 0.415-0.579 1.060-0.869 1.935-0.869 0.849 0 1.488 0.283 1.915 0.849 0.434 0.566 0.652 1.323 0.652 2.271 0 0.915-0.214 1.665-0.642 2.251-0.421 0.579-1.063 0.869-1.925 0.869z"></path>
<path d="M81.717 10.838h2.686v-2.37h-2.686v2.37zM81.717 22.982h2.686v-10.663h-2.686v10.663z"></path>
<path d="M86.158 27.721h2.705v-5.124c0.349 0.217 0.734 0.385 1.155 0.504 0.428 0.119 0.892 0.178 1.392 0.178 0.981 0 1.84-0.247 2.577-0.74s1.309-1.165 1.718-2.014c0.415-0.849 0.622-1.807 0.622-2.873 0-1.086-0.21-2.050-0.631-2.893-0.415-0.849-1.001-1.517-1.758-2.004s-1.645-0.731-2.665-0.731c-0.553 0-1.060 0.079-1.52 0.237-0.455 0.151-0.863 0.369-1.224 0.652v-0.592h-2.37v15.402zM90.976 20.889c-0.895 0-1.527-0.296-1.896-0.889-0.368-0.599-0.552-1.382-0.552-2.35s0.181-1.748 0.543-2.34c0.368-0.599 0.97-0.899 1.807-0.899 0.599 0 1.089 0.148 1.471 0.444 0.389 0.29 0.675 0.681 0.859 1.175 0.185 0.487 0.277 1.027 0.277 1.619 0 0.599-0.089 1.145-0.267 1.639-0.178 0.487-0.451 0.875-0.819 1.165s-0.842 0.434-1.422 0.434z"></path>
<path d="M101.193 23.278c1.395 0 2.488-0.313 3.278-0.938s1.185-1.484 1.185-2.577c0-0.829-0.257-1.484-0.77-1.965-0.507-0.48-1.369-0.879-2.587-1.195-0.829-0.211-1.448-0.382-1.856-0.513-0.401-0.132-0.668-0.26-0.8-0.385-0.125-0.125-0.187-0.28-0.187-0.464 0-0.309 0.147-0.546 0.444-0.711 0.303-0.165 0.701-0.23 1.195-0.197 1.046 0.079 1.619 0.527 1.718 1.343l2.744-0.494c-0.138-0.968-0.612-1.734-1.422-2.3-0.809-0.573-1.842-0.859-3.1-0.859-1.29 0-2.32 0.303-3.090 0.908s-1.155 1.422-1.155 2.449c0 0.816 0.267 1.461 0.8 1.935 0.532 0.467 1.451 0.869 2.754 1.205 0.771 0.204 1.336 0.369 1.699 0.494 0.368 0.125 0.605 0.253 0.71 0.385 0.106 0.125 0.159 0.293 0.159 0.504 0 0.336-0.132 0.599-0.396 0.79-0.263 0.184-0.638 0.276-1.125 0.276-0.593 0-1.083-0.141-1.471-0.425-0.382-0.283-0.629-0.675-0.741-1.175l-2.745 0.415c0.178 1.112 0.678 1.975 1.501 2.587 0.83 0.605 1.916 0.908 3.258 0.908z"></path>
<path d="M110.609 23.298c0.77 0 1.441-0.128 2.014-0.385s1.053-0.599 1.442-1.027v1.096h2.369v-10.663h-2.705v5.411c0 0.658-0.076 1.191-0.227 1.599-0.144 0.402-0.332 0.708-0.562 0.918-0.231 0.204-0.477 0.342-0.741 0.415s-0.51 0.109-0.74 0.109c-0.573 0-1.017-0.128-1.333-0.385-0.309-0.257-0.533-0.576-0.671-0.958s-0.221-0.76-0.247-1.136c-0.026-0.382-0.040-0.694-0.040-0.938v-5.035h-2.725v5.983c0 0.178 0.014 0.461 0.040 0.849s0.102 0.82 0.227 1.293c0.125 0.467 0.333 0.918 0.623 1.353 0.296 0.434 0.707 0.793 1.234 1.076 0.526 0.283 1.207 0.425 2.043 0.425z"></path>
<path d="M117.99 22.982h2.705v-6.457c0-0.612 0.167-1.109 0.503-1.491 0.342-0.388 0.792-0.582 1.353-0.582 0.586 0 1.043 0.197 1.372 0.592 0.335 0.388 0.503 0.935 0.503 1.639v6.299h2.686v-6.457c0-0.612 0.168-1.109 0.503-1.491 0.342-0.388 0.793-0.582 1.353-0.582 0.586 0 1.043 0.197 1.372 0.592 0.335 0.388 0.504 0.935 0.504 1.639v6.299h2.685v-7.010c0-1.165-0.313-2.106-0.939-2.824-0.618-0.724-1.536-1.086-2.754-1.086-0.685 0-1.313 0.148-1.886 0.444s-1.030 0.701-1.372 1.214c-0.276-0.5-0.671-0.902-1.185-1.204s-1.152-0.454-1.915-0.454c-0.646 0-1.237 0.128-1.777 0.385-0.54 0.25-0.987 0.596-1.343 1.037v-1.165h-2.369v10.663z"></path>
<path d="M16.165 0.485c-8.569 0-15.515 6.946-15.515 15.515 8.569 0 15.515-6.946 15.515-15.515z"></path>
<path d="M16.165 31.515c8.569 0 15.515-6.946 15.515-15.515-8.569 0-15.515 6.946-15.515 15.515z"></path>
<path d="M16.165 0.485c8.569 0 15.515 6.946 15.515 15.515-8.569 0-15.515-6.946-15.515-15.515z"></path>
<path d="M16.165 31.515c-8.569 0-15.515-6.946-15.515-15.515 8.569 0 15.515 6.946 15.515 15.515z"></path>
</symbol>
<symbol id="icon-partnerlogo4" viewBox="0 0 171 32">
<path d="M15.747 31.448c8.532 0 15.448-6.916 15.448-15.448v-10.814c0-1.229-0.488-2.408-1.357-3.277s-2.048-1.357-3.277-1.357h-10.041v6.777c0 1.546 0.094 3.148 0.905 4.465 0.581 0.943 1.357 1.751 2.278 2.367s1.962 1.028 3.055 1.207l0.296 0.048c0.122 0.042 0.228 0.12 0.303 0.225s0.115 0.23 0.115 0.359-0.040 0.255-0.115 0.359c-0.075 0.105-0.181 0.184-0.303 0.225l-0.296 0.048c-1.597 0.261-3.072 1.017-4.216 2.161s-1.9 2.619-2.161 4.216l-0.048 0.296c-0.042 0.122-0.12 0.228-0.225 0.303s-0.23 0.115-0.359 0.115-0.255-0.040-0.359-0.115c-0.105-0.075-0.184-0.181-0.225-0.303l-0.048-0.296c-0.179-1.093-0.59-2.135-1.207-3.055s-1.424-1.697-2.367-2.278c-1.316-0.811-2.918-0.905-4.465-0.905h-6.759c0.404 8.173 7.157 14.676 15.43 14.676z"></path>
<path d="M0.299 15.228h6.777c1.546 0 3.148-0.094 4.465-0.905 1.029-0.634 1.895-1.5 2.529-2.529 0.811-1.316 0.905-2.918 0.905-4.465v-6.777h-10.041c-1.229 0-2.408 0.488-3.277 1.357s-1.357 2.048-1.357 3.277v10.041zM36.181 2.097c0 0.41-0.163 0.803-0.452 1.092s-0.683 0.452-1.092 0.452-0.803-0.163-1.092-0.452c-0.29-0.29-0.453-0.683-0.453-1.092s0.163-0.803 0.453-1.092c0.29-0.29 0.683-0.452 1.092-0.452s0.803 0.163 1.092 0.452c0.29 0.29 0.452 0.683 0.452 1.092zM163.827 9.901c4.319 0 6.403 3.016 6.403 6.51v6.562h-4.52v-5.783c0-1.583-0.578-2.89-2.234-2.89-1.657 0-2.209 1.307-2.209 2.89v5.782h-4.52v-5.782c0-1.583-0.552-2.89-2.21-2.89-1.656 0-2.234 1.307-2.234 2.89v5.782h-4.519v-6.562c0-3.494 2.083-6.51 6.402-6.51 2.36 0 4.067 0.93 4.846 2.463 0.828-1.533 2.636-2.464 4.794-2.464v0.002zM139.663 18.951c1.455 0 2.083-1.332 2.083-2.917v-5.631h4.519v6.184c0 3.695-2.158 6.762-6.602 6.762-4.445 0-6.604-3.066-6.604-6.762v-6.184h4.52v5.631c0 1.583 0.627 2.917 2.084 2.917zM126.414 23.374c-2.837 0-4.67-0.98-5.75-2.89l3.265-1.835c0.451 0.804 1.129 1.206 2.259 1.206 0.929 0 1.356-0.327 1.356-0.729 0-1.533-6.628 0.026-6.628-4.851 0-2.364 2.008-4.274 5.423-4.274 2.987 0 4.619 1.458 5.347 2.866l-3.264 1.86c-0.276-0.754-1.13-1.207-1.983-1.207-0.653 0-1.004 0.277-1.004 0.653 0 1.559 6.627 0.126 6.627 4.852 0 2.639-2.585 4.349-5.649 4.349zM110.625 28.754h-4.52v-12.091c0-3.847 2.887-6.637 6.904-6.637 3.917 0 6.905 2.992 6.905 6.637 0 4.022-2.663 6.687-6.654 6.687-0.929 0-1.858-0.277-2.636-0.704v6.109zM113.010 19.101c1.431 0 2.386-1.106 2.386-2.414 0-1.332-0.954-2.413-2.386-2.413s-2.385 1.081-2.385 2.414c0 1.307 0.953 2.413 2.385 2.413zM101.578 9.071c-1.481 0-2.711-1.232-2.711-2.715s1.23-2.715 2.711-2.715c1.481 0 2.712 1.232 2.712 2.715s-1.23 2.715-2.712 2.715zM99.319 10.403h4.519v12.57h-4.519v-12.569zM90.648 23.35c-3.917 0-6.905-3.016-6.905-6.687 0-3.645 2.988-6.661 6.905-6.661s6.905 3.016 6.905 6.661c0 3.671-2.988 6.687-6.905 6.687zM90.648 19.101c1.431 0 2.385-1.106 2.385-2.414 0-1.332-0.954-2.438-2.385-2.438s-2.385 1.106-2.385 2.438c0 1.308 0.954 2.414 2.385 2.414zM75.21 29.131c-3.113 0-5.373-1.383-6.528-3.847l3.741-2.011c0.402 0.855 1.155 1.735 2.711 1.735 1.633 0 2.712-1.031 2.838-2.841-0.602 0.528-1.557 0.93-2.988 0.93-3.491 0-6.303-2.69-6.303-6.46 0-3.644 2.988-6.611 6.905-6.611 4.017 0 6.905 2.791 6.905 6.637v4.977c0 4.525-3.139 7.491-7.282 7.491zM75.511 18.85c1.356 0 2.385-0.931 2.385-2.313 0-1.357-1.029-2.262-2.385-2.262-1.331 0-2.385 0.905-2.385 2.263 0 1.383 1.054 2.312 2.385 2.312v0.001zM61.016 23.35c-3.917 0-6.905-3.016-6.905-6.687 0-3.645 2.988-6.661 6.905-6.661s6.905 3.016 6.905 6.661c0 3.671-2.988 6.687-6.905 6.687zM61.016 19.101c1.431 0 2.385-1.106 2.385-2.414 0-1.332-0.954-2.438-2.385-2.438s-2.385 1.106-2.385 2.438c0 1.308 0.954 2.414 2.385 2.414zM45.881 6.005v12.694h7.482v4.274h-8.11c-2.862 0-4.017-1.509-4.017-3.897v-13.071h4.645z"></path>
</symbol>
<symbol id="icon-partnerlogo5" viewBox="0 0 122 32">
<path d="M28.151 11.2c0.329 0 0.439 0.119 0.439 0.439v7.241h3.721c0.32 0 0.439 0.119 0.439 0.439v0.64c0 0.32-0.119 0.439-0.439 0.439h-4.901c-0.32 0-0.448-0.119-0.448-0.439v-8.32c0-0.32 0.128-0.439 0.448-0.439h0.741z"></path>
<path d="M35.996 14.391c0-2.112 1.335-3.383 3.657-3.383s3.657 1.271 3.657 3.383v2.816c0 2.112-1.344 3.383-3.657 3.383s-3.657-1.271-3.657-3.383v-2.816zM41.774 14.391c0-1.189-0.741-1.829-2.075-1.829s-2.066 0.649-2.066 1.829v2.834c0 1.198 0.731 1.829 2.066 1.829s2.075-0.658 2.075-1.829v-2.834z"></path>
<path d="M54.199 15.36c0.357 0 0.439 0.119 0.439 0.439v1.737c0.010 0.409-0.072 0.815-0.24 1.189s-0.417 0.704-0.729 0.969c-0.776 0.618-1.754 0.924-2.743 0.859-2.368 0-3.657-1.271-3.657-3.383v-2.834c0-2.085 1.335-3.365 3.657-3.365 1.829 0 3.017 0.722 3.52 2.167 0.028 0.054 0.043 0.114 0.044 0.175s-0.013 0.122-0.039 0.177c-0.027 0.055-0.066 0.103-0.114 0.14s-0.105 0.063-0.165 0.074l-0.713 0.247c-0.311 0.11-0.439 0.046-0.549-0.274-0.151-0.39-0.429-0.719-0.788-0.935s-0.78-0.305-1.196-0.254c-1.344 0-2.075 0.649-2.075 1.829v2.907c0 1.198 0.741 1.829 2.075 1.829s2.158-0.613 2.158-1.509v-0.677h-1.984c-0.329 0-0.448-0.128-0.448-0.448v-0.622c0-0.32 0.119-0.439 0.448-0.439h3.099z"></path>
<path d="M58.414 14.391c0-2.112 1.335-3.383 3.657-3.383s3.657 1.271 3.657 3.383v2.816c0 2.112-1.344 3.383-3.657 3.383s-3.657-1.271-3.657-3.383v-2.816zM64.183 14.391c0-1.189-0.741-1.829-2.066-1.829s-2.075 0.649-2.075 1.829v2.834c0 1.198 0.741 1.829 2.075 1.829s2.066-0.658 2.066-1.829v-2.834z"></path>
<path d="M70.035 11.465c0-0.201 0.064-0.265 0.265-0.265h0.421c0.201 0 0.247 0.064 0.247 0.265v8.667c0 0.201 0 0.265-0.247 0.265h-0.421c-0.201 0-0.265-0.064-0.265-0.265v-8.667z"></path>
<path d="M79.297 11.2c0.761 0 1.492 0.302 2.030 0.841s0.841 1.269 0.841 2.030-0.302 1.492-0.841 2.030c-0.538 0.538-1.269 0.841-2.030 0.841h-2.743v3.191c0 0.201-0.046 0.265-0.238 0.265h-0.43c-0.192 0-0.265-0.064-0.265-0.265v-8.667c0-0.201 0.073-0.265 0.265-0.265h3.41zM79.214 16.037c0.262 0 0.521-0.052 0.763-0.152s0.462-0.247 0.647-0.432 0.332-0.405 0.432-0.647c0.1-0.242 0.152-0.501 0.152-0.763s-0.052-0.521-0.152-0.763c-0.1-0.242-0.247-0.462-0.432-0.647s-0.405-0.332-0.647-0.432c-0.242-0.1-0.501-0.152-0.763-0.152h-2.743v3.986h2.743z"></path>
<path d="M89.308 11.017c0.706-0.078 1.418 0.074 2.031 0.433s1.094 0.906 1.371 1.56c0.073 0.146 0 0.265-0.146 0.338l-0.402 0.183c-0.165 0.064-0.229 0.055-0.329-0.119-0.208-0.485-0.564-0.892-1.017-1.162s-0.981-0.388-1.506-0.338c-1.545 0-2.386 0.613-2.386 1.71-0.009 0.335 0.104 0.663 0.317 0.921s0.513 0.432 0.844 0.487c0.492 0.16 1.002 0.259 1.518 0.293 0.625 0.033 1.241 0.16 1.829 0.375 0.451 0.143 0.838 0.436 1.098 0.83s0.376 0.867 0.328 1.337c0 1.71-1.243 2.743-3.529 2.743-0.75 0.086-1.506-0.088-2.143-0.492s-1.117-1.015-1.358-1.729c-0.016-0.033-0.025-0.068-0.026-0.105s0.007-0.072 0.022-0.106c0.015-0.033 0.037-0.063 0.064-0.086s0.060-0.041 0.095-0.051l0.402-0.146c0.032-0.013 0.066-0.019 0.1-0.018s0.068 0.009 0.099 0.024c0.031 0.015 0.058 0.035 0.081 0.061s0.039 0.056 0.049 0.089c0.205 0.516 0.568 0.954 1.038 1.25s1.022 0.434 1.576 0.395c1.728 0 2.579-0.603 2.579-1.829 0.016-0.322-0.082-0.639-0.279-0.896s-0.476-0.434-0.791-0.503c-0.473-0.141-0.961-0.227-1.454-0.256l-0.987-0.128c-0.309-0.066-0.614-0.148-0.914-0.247-0.296-0.089-0.573-0.235-0.814-0.43-0.243-0.22-0.434-0.49-0.56-0.792s-0.185-0.628-0.171-0.955c0.064-1.6 1.262-2.642 3.374-2.642z"></path>
<path d="M97.784 17.271c0.038 0.647 0.323 1.254 0.794 1.698s1.095 0.691 1.743 0.691c0.647 0 1.271-0.247 1.743-0.691s0.755-1.051 0.794-1.698v-5.806c0-0.201 0.064-0.265 0.265-0.265h0.421c0.201 0 0.265 0.064 0.265 0.265v5.797c0 2.075-1.225 3.328-3.483 3.328s-3.483-1.253-3.483-3.328v-5.797c0-0.201 0.064-0.265 0.256-0.265h0.43c0.192 0 0.256 0.064 0.256 0.265v5.806z"></path>
<path d="M116.426 11.2c0.201 0 0.265 0.064 0.265 0.265v8.667c0 0.201-0.064 0.265-0.265 0.265h-0.384c-0.192 0-0.256-0.064-0.256-0.265v-5.275c0-0.768 0.052-1.534 0.155-2.295h-0.055c-0.285 0.696-0.619 1.371-0.997 2.021l-1.966 3.465c-0.024 0.060-0.066 0.112-0.12 0.147s-0.117 0.055-0.182 0.054h-0.256c-0.066 0-0.13-0.019-0.186-0.054s-0.099-0.087-0.125-0.147l-1.993-3.502c-0.354-0.641-0.659-1.307-0.914-1.993h-0.055c0.093 0.768 0.143 1.54 0.146 2.313v5.266c0 0.201-0.064 0.265-0.265 0.265h-0.357c-0.201 0-0.265-0.064-0.265-0.265v-8.667c0-0.201 0.064-0.265 0.265-0.265h0.329c0.075-0.007 0.151 0.009 0.216 0.047s0.118 0.095 0.15 0.163l3.2 5.687 3.182-5.632c0.101-0.192 0.155-0.219 0.357-0.219l0.375-0.046z"></path>
<path d="M11.886 19.008v6.61c0 0.253-0.101 0.496-0.28 0.676s-0.422 0.28-0.676 0.28c-0.253 0-0.496-0.101-0.676-0.28s-0.28-0.422-0.28-0.676v-6.601c0.266 0.194 0.585 0.303 0.914 0.311 0.359 0.010 0.711-0.103 0.997-0.32zM20.023 17.097c-0.242 0-0.475 0.096-0.646 0.268s-0.268 0.404-0.268 0.646v1.152c0 0.253 0.101 0.496 0.28 0.676s0.422 0.28 0.676 0.28 0.496-0.101 0.676-0.28c0.179-0.179 0.28-0.422 0.28-0.676v-1.106c0.007-0.131-0.014-0.262-0.062-0.384s-0.122-0.233-0.216-0.324c-0.095-0.091-0.208-0.161-0.331-0.204s-0.256-0.060-0.386-0.048zM7.9 21.513c-0.329-0.010-0.647-0.118-0.914-0.311v6.629c0 0.255 0.101 0.499 0.281 0.679s0.424 0.281 0.679 0.281c0.255 0 0.499-0.101 0.679-0.281s0.281-0.424 0.281-0.679v-6.583c-0.299 0.193-0.651 0.286-1.006 0.265zM17.043 15.113c-0.124-0.006-0.248 0.013-0.364 0.056s-0.222 0.11-0.312 0.195c-0.090 0.086-0.161 0.188-0.21 0.302s-0.074 0.237-0.074 0.361v5.093c0 0.255 0.101 0.499 0.281 0.679s0.424 0.281 0.679 0.281 0.499-0.101 0.679-0.281c0.18-0.18 0.281-0.424 0.281-0.679v-5.029c0.007-0.132-0.014-0.264-0.063-0.387s-0.123-0.234-0.219-0.325c-0.096-0.091-0.21-0.161-0.335-0.204s-0.258-0.058-0.389-0.045l0.046-0.018zM14.007 17.070c-0.344-0.002-0.68-0.111-0.96-0.311v6.647c0 0.255 0.101 0.499 0.281 0.679s0.424 0.281 0.679 0.281 0.499-0.101 0.679-0.281c0.18-0.18 0.281-0.424 0.281-0.679v-6.638c-0.29 0.216-0.644 0.329-1.006 0.32l0.046-0.018zM5.825 22.162v-18.569c-0.002-0.226-0.094-0.443-0.255-0.602s-0.378-0.248-0.604-0.248h-0.201c-0.226 0-0.444 0.089-0.604 0.248s-0.253 0.375-0.255 0.602v18.569c0 0.228 0.091 0.447 0.252 0.608s0.38 0.252 0.608 0.252h0.201c0.228 0 0.447-0.090 0.608-0.252s0.252-0.38 0.252-0.608zM8.001 20.809h-0.201c-0.228 0-0.447-0.090-0.608-0.252s-0.252-0.38-0.252-0.608v-14.144c0.002-0.226 0.094-0.443 0.255-0.602s0.378-0.248 0.604-0.248h0.201c0.226 0 0.444 0.089 0.604 0.248s0.253 0.375 0.255 0.602v14.162c0 0.228-0.091 0.447-0.252 0.608s-0.38 0.252-0.608 0.252v-0.018zM11.027 18.633h-0.21c-0.225 0-0.442-0.090-0.601-0.249s-0.249-0.376-0.249-0.601v-9.783c-0.001-0.112 0.020-0.224 0.062-0.328s0.105-0.199 0.184-0.279c0.079-0.080 0.173-0.143 0.277-0.187s0.215-0.066 0.328-0.066h0.21c0.226 0.002 0.443 0.094 0.602 0.255s0.248 0.378 0.248 0.604v9.783c0 0.226-0.090 0.442-0.249 0.601s-0.376 0.249-0.601 0.249zM14.053 16.393h-0.192c-0.226 0-0.444-0.089-0.605-0.248s-0.253-0.375-0.255-0.602v-5.266c-0.008-0.117 0.009-0.235 0.049-0.346s0.102-0.212 0.182-0.298c0.081-0.086 0.178-0.154 0.286-0.201s0.224-0.070 0.342-0.070h0.201c0.228 0 0.447 0.091 0.608 0.252s0.252 0.38 0.252 0.608v5.303c0.001 0.114-0.020 0.226-0.063 0.332s-0.106 0.201-0.186 0.282c-0.080 0.081-0.175 0.145-0.28 0.189s-0.217 0.066-0.331 0.066h-0.009zM17.089 14.427h-0.201c-0.228 0-0.447-0.091-0.608-0.252s-0.252-0.38-0.252-0.608v-1.362c0.002-0.226 0.094-0.443 0.255-0.602s0.378-0.248 0.605-0.248h0.201c0.226 0 0.444 0.089 0.605 0.248s0.253 0.375 0.255 0.602v1.362c0 0.226-0.089 0.444-0.248 0.605s-0.375 0.253-0.602 0.255h-0.009z"></path>
</symbol>
<symbol id="icon-arrow" viewBox="0 0 38 32">
<path d="M0.468 17.132l14.4 14.4c0.3 0.3 0.707 0.469 1.132 0.469s0.832-0.169 1.132-0.469 0.469-0.707 0.469-1.132c0-0.425-0.169-0.832-0.469-1.132l-11.67-11.668h31.338c0.424 0 0.831-0.169 1.131-0.469s0.469-0.707 0.469-1.131c0-0.424-0.169-0.831-0.469-1.131s-0.707-0.469-1.131-0.469h-31.338l11.67-11.668c0.3-0.3 0.469-0.707 0.469-1.132s-0.169-0.832-0.469-1.132c-0.3-0.3-0.707-0.469-1.132-0.469s-0.832 0.169-1.132 0.469l-14.4 14.4c-0.149 0.149-0.267 0.325-0.347 0.519s-0.122 0.402-0.122 0.613c0 0.21 0.041 0.418 0.122 0.613s0.199 0.371 0.347 0.519z"></path>
</symbol>
</defs>
</svg>
