<svg aria-hidden="true" style="width:0;height:0;position:absolute;overflow:hidden" xmlns="http://www.w3.org/2000/svg" viewBox="0 0 0 0"><defs><symbol id="icon-menu" viewBox="0 0 32 32"><path d="M2 6h28v6H2zm0 8h28v6H2zm0 8h28v6H2z"/></symbol><symbol id="icon-partnerlogo1" viewBox="0 0 256 32"><path d="M127.483 27.577h-8.623V4.524h8.623v23.053zm-7.781-.842h6.939V5.366h-6.939v21.369zm19.779.842h-8.45V4.524h17.654a10.586 10.586 0 0 1 7.097 2.001 7.757 7.757 0 0 1 2.491 6.429 8.19 8.19 0 0 1-1.834 5.684c-1.544 1.772-4.115 2.685-7.638 2.717-.888.024-7.539 0-9.315 0l-.005 6.223zm-7.612-.842h6.771v-6.232h.423c.086 0 8.721.027 9.72 0 3.283-.029 5.642-.842 7.021-2.43a7.394 7.394 0 0 0 1.617-5.122 6.974 6.974 0 0 0-2.19-5.782 9.813 9.813 0 0 0-6.557-1.805h-16.8l-.005 21.371zm15.028-10.56h-8.315V9.9h8.371a3.555 3.555 0 0 1 3.2 1.224c.351.584.517 1.261.475 1.942a3.576 3.576 0 0 1-.396 1.822 3.647 3.647 0 0 1-3.335 1.28v.007zm-7.473-.842h7.473c1.381 0 2.237-.288 2.616-.881a2.8 2.8 0 0 0 .275-1.386 2.614 2.614 0 0 0-.313-1.445l-.01-.015c-.401-.589-1.197-.864-2.511-.864h-7.528v4.591zm34.218 12.585c-7.562 0-12.076-1.878-13.795-5.74a10.028 10.028 0 0 1-.569-2.314l-.074-.485h8.997l.059.354c.069.359.222.697.445.987.355.429 1.541 1.15 5.475 1.15 4.729 0 4.729-.83 4.729-1.277 0-.753-.547-1.011-4.404-1.421l-.733-.069c-1.452-.136-3.288-.31-4.126-.382-7.074-.64-10.232-2.838-10.232-7.124 0-4.502 5.374-7.411 13.693-7.411 6.786 0 11.158 1.789 12.992 5.32.435.822.728 1.711.864 2.631l.059.473h-9.007l-.037-.381a1.432 1.432 0 0 0-.364-.798c-.337-.451-1.401-1.197-4.706-1.197-4.057 0-4.616.519-4.616 1.078 0 .746 1.282 1.011 5.389 1.45 1.713.14 4.467.423 5.41.537 5.93.643 8.576 2.787 8.576 6.954.002 3.495-2.432 7.665-14.024 7.665zm-13.455-7.697c.084.555.23 1.1.433 1.624 1.566 3.518 5.827 5.231 13.022 5.231 6.016 0 13.189-1.179 13.189-6.823 0-3.693-2.341-5.523-7.83-6.117-.943-.115-3.68-.396-5.389-.537-4.379-.475-6.159-.728-6.159-2.287 0-1.613 1.918-1.92 5.459-1.92 2.797 0 4.605.505 5.371 1.524.209.251.367.541.465.852h7.299a7.571 7.571 0 0 0-.691-1.871c-1.684-3.232-5.799-4.869-12.246-4.869-7.806 0-12.851 2.579-12.851 6.568 0 3.806 2.831 5.686 9.464 6.285.842.072 2.676.246 4.131.384l.738.069c3.582.377 5.162.613 5.162 2.259 0 1.772-2.043 2.119-5.571 2.119-3.264 0-5.325-.49-6.122-1.455a3.115 3.115 0 0 1-.546-1.036h-7.328zm43.48 7.668c-8.792 0-13.642-3.555-13.642-10.013V4.524h8.509v13.352c0 2.215 1.982 3.485 5.437 3.485 3.301 0 5.351-1.325 5.351-3.456V4.524h8.421v14.06c.008 5.913-5.127 9.305-14.08 9.305h.005zm-12.8-22.523v12.51c0 7.98 8.013 9.171 12.8 9.171 4.948 0 13.246-1.1 13.246-8.463V5.366h-6.737v12.539c0 2.611-2.432 4.298-6.193 4.298-3.931 0-6.279-1.617-6.279-4.327V5.366h-6.838zm62.56 22.211h-8.03V17.169l-4.554 10.408h-7.005l-4.507-10.388v10.388h-8.059V4.524h10.6l5.507 12.711 5.773-12.711h10.284l-.01 23.053zm-7.189-.842h6.346V5.366h-8.896l-6.336 13.944-6.04-13.944h-9.206v21.369h6.375V13.137l5.895 13.603h5.895l5.957-13.583.01 13.578zM10.196 4.945h-7.67v22.211H23.72v-5.913H10.196V4.945zm29.006-.505c-9.79 0-14.939 4.64-14.939 11.453 0 7.697 5.405 11.601 14.939 11.601 10.496 0 14.91-4.527 14.91-11.601 0-7.183-4.98-11.456-14.91-11.456v.003zm-.029 5.772c.666-.003 1.333.036 1.994.116l-8.574 8.574a6.793 6.793 0 0 1-.579-2.917c0-3.485 1.755-5.777 7.16-5.777v.003zm.029 11.6a15.83 15.83 0 0 1-1.922-.108l8.589-8.589c.391.903.578 1.88.547 2.863 0 3.39-1.617 5.831-7.215 5.831v.003zm30.107-3.031h7.894a3.602 3.602 0 0 1-.707 1.499 8.181 8.181 0 0 1-5.829 1.811 7.43 7.43 0 0 1-5.856-1.952 6.29 6.29 0 0 1-1.076-3.99 6.143 6.143 0 0 1 1.16-4.158c1.103-1.246 2.971-1.784 5.716-1.784a7.792 7.792 0 0 1 4.952 1.273c.46.366.804.857.99 1.415h7.321a7.528 7.528 0 0 0-.652-2.659c-1.753-3.565-5.829-5.688-12.76-5.688-6.028 0-10.073 1.839-12.308 4.613a11.063 11.063 0 0 0-2.151 6.932 11.675 11.675 0 0 0 2.102 7.133c2.208 2.863 6.141 4.271 10.867 4.271a13.582 13.582 0 0 0 8.827-2.489l.199 2.149h6.082V14H69.309v4.781zm32.032-14.346c-9.789 0-14.939 4.64-14.939 11.453 0 7.697 5.403 11.601 14.939 11.601 10.498 0 14.912-4.527 14.912-11.601 0-7.178-4.98-11.451-14.912-11.451v-.002zm-.027 5.772c.649-.002 1.297.035 1.942.111l-8.541 8.546a6.845 6.845 0 0 1-.561-2.878c-.007-3.485 1.755-5.779 7.16-5.779zm.027 11.6a15.848 15.848 0 0 1-1.972-.115l8.618-8.62c.405.915.599 1.909.568 2.909.003 3.387-1.607 5.827-7.213 5.827v-.002z"/></symbol><symbol id="icon-partnerlogo2" viewBox="0 0 142 32"><path d="M41.877 21.194c0 .677-.139 1.198-.417 1.561-.271.364-.724.545-1.358.545-.599 0-1.023-.182-1.273-.545-.242-.364-.364-.884-.364-1.561V9.889c0-.677.121-1.198.364-1.561.25-.364.674-.545 1.273-.545.635 0 1.087.182 1.358.545.278.364.417.884.417 1.561v11.305zM42.912 17.911c0-.756.121-1.469.364-2.139a4.984 4.984 0 0 1 1.112-1.775c.499-.506 1.12-.909 1.861-1.209.749-.3 1.626-.449 2.631-.449.963 0 1.815.139 2.556.417s1.365.667 1.872 1.166a4.87 4.87 0 0 1 1.155 1.765c.264.677.396 1.419.396 2.225 0 .749-.125 1.458-.374 2.128a4.953 4.953 0 0 1-1.123 1.754c-.499.499-1.123.898-1.872 1.198-.749.292-1.619.438-2.61.438-.977 0-1.84-.139-2.588-.417-.742-.285-1.365-.674-1.871-1.166a4.967 4.967 0 0 1-1.134-1.754 6.252 6.252 0 0 1-.374-2.182zm3.562 0c0 .471.043.92.128 1.348.086.421.221.791.406 1.112.193.321.442.577.749.77.307.185.681.278 1.123.278.406 0 .759-.086 1.059-.257.307-.171.556-.41.749-.717.2-.307.349-.674.449-1.102a6.4 6.4 0 0 0 .15-1.433c0-.471-.046-.916-.139-1.337a3.521 3.521 0 0 0-.417-1.123 2.154 2.154 0 0 0-.749-.77c-.299-.193-.667-.289-1.102-.289s-.806.093-1.112.278c-.307.185-.556.438-.749.759s-.332.695-.417 1.123a6.888 6.888 0 0 0-.128 1.358zM63.638 21.237a3.35 3.35 0 0 1-.706.909c-.271.25-.574.456-.909.62a4.64 4.64 0 0 1-1.059.353 6.07 6.07 0 0 1-1.144.107c-.656 0-1.255-.118-1.797-.353s-1.009-.574-1.401-1.016c-.385-.449-.684-.998-.898-1.647s-.321-1.39-.321-2.225c0-.784.1-1.519.3-2.203s.488-1.28.866-1.786c.385-.506.856-.906 1.412-1.198s1.191-.439 1.904-.439c.813 0 1.533.157 2.16.471.635.314 1.18.827 1.636 1.54v-.278c0-.513.139-.898.417-1.155.285-.264.677-.396 1.176-.396.299 0 .553.05.759.15a1.1 1.1 0 0 1 .492.428c.121.185.207.417.257.695.057.271.085.581.085.93v7.166c0 .87-.11 1.647-.331 2.331-.214.684-.549 1.262-1.005 1.733s-1.041.827-1.754 1.07c-.713.25-1.562.374-2.545.374-.692 0-1.305-.032-1.84-.096a7.173 7.173 0 0 1-1.369-.267c-.385-.136-.677-.285-.877-.449a.805.805 0 0 1-.289-.642c0-.15.021-.292.064-.428s.107-.257.193-.364c.093-.1.21-.182.353-.246.15-.057.331-.086.545-.086.228 0 .456.014.684.043.235.029.478.057.727.086.257.036.524.068.802.096.285.029.592.043.92.043.392 0 .742-.039 1.048-.118s.567-.218.781-.417c.214-.2.378-.467.492-.802.114-.328.171-.749.171-1.262v-1.273zm0-3.326c0-.521-.039-.995-.118-1.423a3.124 3.124 0 0 0-.374-1.091 1.835 1.835 0 0 0-.717-.706c-.3-.171-.674-.257-1.123-.257-.442 0-.809.089-1.102.267-.285.178-.513.424-.684.738s-.292.681-.364 1.102c-.064.421-.096.87-.096 1.348 0 1.091.193 1.911.577 2.46s.945.824 1.679.824c.342-.007.653-.071.93-.193.285-.128.531-.324.738-.588s.367-.599.481-1.005c.114-.406.171-.898.171-1.476zM67.85 17.911c0-.756.121-1.469.364-2.139.25-.677.62-1.269 1.112-1.775.499-.506 1.119-.909 1.861-1.209.749-.3 1.626-.449 2.631-.449.962 0 1.814.139 2.556.417s1.365.667 1.872 1.166a4.87 4.87 0 0 1 1.155 1.765c.264.677.396 1.419.396 2.225 0 .749-.125 1.458-.374 2.128a4.967 4.967 0 0 1-1.123 1.754c-.499.499-1.123.898-1.872 1.198-.749.292-1.619.438-2.61.438-.977 0-1.84-.139-2.588-.417-.742-.285-1.365-.674-1.872-1.166a4.967 4.967 0 0 1-1.134-1.754 6.275 6.275 0 0 1-.374-2.182zm3.562 0c0 .471.043.92.128 1.348.086.421.221.791.406 1.112.192.321.442.577.749.77.307.185.681.278 1.123.278.406 0 .759-.086 1.059-.257.307-.171.556-.41.749-.717.2-.307.349-.674.449-1.102a6.4 6.4 0 0 0 .15-1.433c0-.471-.046-.916-.139-1.337a3.498 3.498 0 0 0-.417-1.123 2.145 2.145 0 0 0-.749-.77c-.299-.193-.667-.289-1.102-.289s-.806.093-1.112.278c-.307.185-.556.438-.749.759s-.332.695-.417 1.123a6.888 6.888 0 0 0-.128 1.358zM84.383 8.734c0 .235-.053.446-.16.631-.107.178-.246.328-.417.449s-.371.214-.599.278a2.728 2.728 0 0 1-1.4-.01 1.947 1.947 0 0 1-.588-.278c-.171-.128-.307-.282-.406-.46s-.15-.381-.15-.61c0-.207.046-.396.139-.567.1-.178.232-.332.396-.46s.36-.228.588-.299.478-.107.749-.107c.235 0 .463.032.684.096.228.064.428.157.599.278s.307.271.406.449c.107.178.16.381.16.61zm-.16 12.46c0 .677-.139 1.198-.417 1.561-.271.364-.724.545-1.358.545-.599 0-1.023-.182-1.273-.545-.242-.364-.364-.884-.364-1.561v-6.545c0-.677.121-1.198.364-1.562.249-.364.674-.545 1.273-.545.635 0 1.087.182 1.358.545.278.364.417.884.417 1.562v6.545zM89.141 17.889c0 .478.036.923.107 1.337.078.413.207.777.385 1.091.185.307.428.549.727.727.307.178.684.267 1.134.267.414 0 .759-.086 1.038-.257.285-.178.513-.421.684-.727a3.51 3.51 0 0 0 .363-1.102c.079-.421.118-.877.118-1.369 0-.392-.028-.791-.086-1.198-.057-.414-.163-.788-.32-1.123s-.374-.61-.653-.824c-.278-.214-.642-.321-1.091-.321s-.831.071-1.144.214a1.79 1.79 0 0 0-.749.652c-.186.292-.317.66-.396 1.102a8.76 8.76 0 0 0-.118 1.529zm-.011-3.24c.178-.378.406-.709.684-.995a4.204 4.204 0 0 1 1.968-1.145c.371-.1.738-.15 1.101-.15.656 0 1.249.146 1.776.439s.977.692 1.347 1.198c.378.499.667 1.091.867 1.775.199.677.299 1.405.299 2.182 0 .806-.108 1.544-.321 2.214a5.228 5.228 0 0 1-.888 1.733 4.074 4.074 0 0 1-1.369 1.123 3.803 3.803 0 0 1-1.764.406c-.799 0-1.512-.185-2.139-.556s-1.148-.891-1.561-1.561v3.85c0 .677-.139 1.198-.417 1.561-.271.364-.724.545-1.358.545-.599 0-1.023-.182-1.273-.545-.242-.364-.364-.884-.364-1.561V14.649c0-.677.121-1.198.364-1.561.25-.364.674-.546 1.273-.546.635 0 1.087.182 1.358.546.278.364.417.884.417 1.561zM100.936 15.408c0 .278.122.495.364.652.242.15.578.275 1.006.374.406.093.823.182 1.251.267s.846.186 1.252.3c.406.107.787.235 1.144.385s.67.339.941.567c.272.221.485.492.642.813.157.314.236.692.236 1.134 0 .556-.114 1.052-.342 1.487a3.15 3.15 0 0 1-.973 1.091c-.414.299-.91.531-1.487.695s-1.215.25-1.914.257c-.662 0-1.301-.043-1.915-.128a7.793 7.793 0 0 1-1.636-.374c-.47-.171-.849-.381-1.134-.631-.285-.257-.428-.556-.428-.898 0-.3.096-.531.289-.695s.438-.246.738-.246c.114 0 .249.021.406.064s.328.096.513.16.381.135.589.214c.213.071.434.135.662.192.286.078.578.143.878.193.306.043.621.064.942.064.199 0 .396-.018.588-.053.193-.043.365-.103.514-.182.157-.086.285-.193.385-.321s.16-.285.182-.471c.02-.043.039-.086.052-.128s.022-.093.022-.15c0-.2-.093-.378-.278-.535-.178-.157-.433-.282-.759-.374-.55-.128-1.073-.246-1.573-.353s-.962-.221-1.39-.342a8.637 8.637 0 0 1-1.156-.417 3.248 3.248 0 0 1-.877-.577 2.483 2.483 0 0 1-.557-.824c-.128-.321-.192-.709-.192-1.166 0-.492.111-.931.331-1.316.229-.392.554-.72.975-.984s.93-.463 1.529-.599a8.769 8.769 0 0 1 2.031-.214c1.355 0 2.385.164 3.091.492.713.321 1.07.742 1.07 1.262 0 .292-.097.517-.289.674a1.1 1.1 0 0 1-.695.225c-.143 0-.293-.025-.45-.075a7.837 7.837 0 0 0-.545-.182 5.167 5.167 0 0 0-.77-.182 5.826 5.826 0 0 0-1.091-.086c-.328 0-.627.014-.899.043a2.817 2.817 0 0 0-.685.15 1.086 1.086 0 0 0-.437.289.692.692 0 0 0-.15.46zM112.111 19.333c0 .335.043.628.129.877.092.25.217.46.374.631.157.164.338.289.545.374.214.078.442.118.684.118.286 0 .561-.043.824-.128s.496-.218.696-.396c.206-.178.37-.403.492-.674s.181-.588.181-.952v-4.535c0-.677.121-1.198.364-1.561.25-.364.674-.546 1.273-.546.634 0 1.087.182 1.358.546.278.364.417.884.417 1.561v6.546c0 .677-.139 1.198-.417 1.561-.271.364-.723.546-1.358.546-.599 0-1.023-.182-1.273-.546-.242-.364-.364-.884-.364-1.561a3.52 3.52 0 0 1-.589.898 3.668 3.668 0 0 1-.834.706 4.087 4.087 0 0 1-1.048.449c-.377.107-.788.16-1.23.16-.478 0-.938-.082-1.38-.246a3.438 3.438 0 0 1-1.155-.749c-.335-.335-.602-.749-.802-1.241s-.3-1.066-.3-1.722v-4.802c0-.677.121-1.198.364-1.561.249-.364.673-.546 1.273-.546.634 0 1.086.182 1.358.546.278.364.417.884.417 1.561v4.684zM120.996 14.649c0-.677.122-1.198.365-1.561.249-.364.674-.546 1.272-.546.635 0 1.088.182 1.359.546.277.364.417.884.417 1.561.143-.342.335-.652.578-.93a3.87 3.87 0 0 1 .845-.727 4.1 4.1 0 0 1 1.038-.46 4.023 4.023 0 0 1 2.246-.021c.364.093.699.246 1.006.46.313.207.588.471.823.791s.417.706.546 1.155c.221-.478.481-.881.781-1.209s.625-.592.973-.791c.35-.2.714-.342 1.092-.428a5.273 5.273 0 0 1 1.154-.128c.457 0 .892.082 1.305.246.421.164.787.414 1.102.749.322.328.574.745.759 1.251.193.499.289 1.084.289 1.754v4.834c0 .677-.139 1.198-.417 1.561-.271.364-.724.545-1.359.545-.598 0-1.023-.182-1.272-.545-.242-.364-.364-.884-.364-1.561v-4.684a2.68 2.68 0 0 0-.128-.856 1.761 1.761 0 0 0-.365-.642 1.386 1.386 0 0 0-.534-.396 1.602 1.602 0 0 0-.663-.139c-.293 0-.57.046-.834.139s-.495.235-.695.428a2.194 2.194 0 0 0-.471.738c-.113.299-.171.66-.171 1.08v4.332c0 .677-.14 1.198-.417 1.561-.271.364-.723.545-1.359.545-.599 0-1.023-.182-1.272-.545-.242-.364-.365-.884-.365-1.561v-4.481c0-.734-.153-1.29-.459-1.668-.301-.378-.71-.567-1.231-.567-.306 0-.593.05-.856.15s-.492.246-.684.438a2.115 2.115 0 0 0-.461.716 2.79 2.79 0 0 0-.16.984v4.428c0 .677-.14 1.198-.417 1.561-.271.364-.723.545-1.359.545-.598 0-1.023-.182-1.272-.545-.242-.364-.365-.884-.365-1.561V14.65zM16.222 21.476a5.476 5.476 0 1 1 0-10.953 5.476 5.476 0 0 1 0 10.953z"/><path d="M5.614 17.871c-1.587.28-2.675 1.813-2.065 3.305a13.691 13.691 0 0 0 25.521-.446c.557-1.512-.584-3.006-2.18-3.23s-3.028.937-3.817 2.343a7.857 7.857 0 0 1-6.713 4.012 7.852 7.852 0 0 1-6.849-3.775c-.837-1.377-2.309-2.488-3.896-2.208z"/><path d="M29.806 17.711c.07-.561.106-1.131.106-1.711 0-7.561-6.129-13.69-13.69-13.69S2.532 8.439 2.532 16c0 .743.059 1.473.173 2.185a4.271 4.271 0 0 1 2.67-1.662c1.147-.202 2.189.076 3.071.596a7.855 7.855 0 1 1 15.586-.271c.863-.551 1.895-.865 3.048-.703a4.273 4.273 0 0 1 2.726 1.567z"/></symbol><symbol id="icon-partnerlogo3" viewBox="0 0 135 32"><path d="M38.691 22.982h8.807v-2.508h-6.121V8.764h-2.686v14.217zM52.79 23.278c1.066 0 2.004-.237 2.814-.711a5.035 5.035 0 0 0 1.906-1.985c.461-.849.691-1.827.691-2.932 0-1.099-.227-2.07-.681-2.913a5 5 0 0 0-1.906-1.994c-.809-.48-1.751-.721-2.824-.721-1.053 0-1.984.237-2.794.711s-1.445 1.135-1.906 1.985c-.461.842-.691 1.82-.691 2.932 0 1.099.224 2.073.671 2.922.454.843 1.086 1.504 1.896 1.985s1.751.721 2.824.721zm0-2.508c-.836 0-1.471-.28-1.905-.839-.428-.566-.642-1.326-.642-2.281 0-.928.204-1.679.612-2.251.415-.579 1.06-.869 1.935-.869.849 0 1.488.283 1.915.849.434.566.652 1.323.652 2.271 0 .915-.214 1.665-.642 2.251-.421.579-1.063.869-1.925.869zM63.511 23.278c.5 0 .961-.059 1.382-.178a4.415 4.415 0 0 0 1.165-.504v1.076c.013.395-.089.724-.306.987-.211.27-.494.471-.849.602a3.111 3.111 0 0 1-1.135.207c-.375 0-.724-.082-1.047-.247a1.723 1.723 0 0 1-.731-.721l-2.488 1.205c.408.691.991 1.247 1.748 1.669.757.428 1.59.642 2.498.642.783 0 1.511-.105 2.182-.316.671-.204 1.237-.517 1.698-.938a3.21 3.21 0 0 0 .958-1.609c.059-.23.099-.464.118-.701.026-.23.039-.477.039-.74V12.318h-2.35v.592a4.036 4.036 0 0 0-1.234-.652 4.575 4.575 0 0 0-1.511-.237c-1.02 0-1.909.244-2.666.731s-1.346 1.155-1.767 2.004c-.415.842-.622 1.807-.622 2.893 0 1.066.204 2.024.612 2.873.415.849.991 1.52 1.728 2.014s1.596.74 2.577.74zm.435-2.389c-.579 0-1.053-.145-1.422-.434s-.642-.678-.819-1.165a4.804 4.804 0 0 1-.267-1.639c0-.593.092-1.132.276-1.619.184-.494.467-.885.849-1.175.388-.296.882-.444 1.481-.444.842 0 1.445.3 1.807.899.362.592.543 1.372.543 2.34s-.184 1.751-.553 2.35c-.362.592-.994.889-1.896.889zM75.123 23.278c1.066 0 2.004-.237 2.814-.711a5.025 5.025 0 0 0 1.905-1.985c.461-.849.691-1.827.691-2.932 0-1.099-.227-2.07-.681-2.913a5.003 5.003 0 0 0-1.905-1.994c-.809-.48-1.751-.721-2.824-.721-1.053 0-1.984.237-2.794.711s-1.445 1.135-1.906 1.985c-.461.842-.691 1.82-.691 2.932 0 1.099.224 2.073.671 2.922.454.843 1.086 1.504 1.896 1.985s1.751.721 2.824.721zm0-2.508c-.836 0-1.471-.28-1.906-.839-.428-.566-.642-1.326-.642-2.281 0-.928.204-1.679.612-2.251.415-.579 1.06-.869 1.935-.869.849 0 1.488.283 1.915.849.434.566.652 1.323.652 2.271 0 .915-.214 1.665-.642 2.251-.421.579-1.063.869-1.925.869zM81.717 10.838h2.686v-2.37h-2.686v2.37zm0 12.144h2.686V12.319h-2.686v10.663zM86.158 27.721h2.705v-5.124c.349.217.734.385 1.155.504.428.119.892.178 1.392.178.981 0 1.84-.247 2.577-.74s1.309-1.165 1.718-2.014c.415-.849.622-1.807.622-2.873 0-1.086-.21-2.05-.631-2.893-.415-.849-1.001-1.517-1.758-2.004s-1.645-.731-2.665-.731c-.553 0-1.06.079-1.52.237a4.02 4.02 0 0 0-1.224.652v-.592h-2.37v15.402zm4.818-6.832c-.895 0-1.527-.296-1.896-.889-.368-.599-.552-1.382-.552-2.35s.181-1.748.543-2.34c.368-.599.97-.899 1.807-.899.599 0 1.089.148 1.471.444.389.29.675.681.859 1.175.185.487.277 1.027.277 1.619 0 .599-.089 1.145-.267 1.639-.178.487-.451.875-.819 1.165s-.842.434-1.422.434zM101.193 23.278c1.395 0 2.488-.313 3.278-.938s1.185-1.484 1.185-2.577c0-.829-.257-1.484-.77-1.965-.507-.48-1.369-.879-2.587-1.195a34.294 34.294 0 0 1-1.856-.513c-.401-.132-.668-.26-.8-.385a.63.63 0 0 1-.187-.464c0-.309.147-.546.444-.711.303-.165.701-.23 1.195-.197 1.046.079 1.619.527 1.718 1.343l2.744-.494c-.138-.968-.612-1.734-1.422-2.3-.809-.573-1.842-.859-3.1-.859-1.29 0-2.32.303-3.09.908s-1.155 1.422-1.155 2.449c0 .816.267 1.461.8 1.935.532.467 1.451.869 2.754 1.205.771.204 1.336.369 1.699.494.368.125.605.253.71.385.106.125.159.293.159.504a.921.921 0 0 1-.396.79c-.263.184-.638.276-1.125.276-.593 0-1.083-.141-1.471-.425-.382-.283-.629-.675-.741-1.175l-2.745.415c.178 1.112.678 1.975 1.501 2.587.83.605 1.916.908 3.258.908zM110.609 23.298c.77 0 1.441-.128 2.014-.385s1.053-.599 1.442-1.027v1.096h2.369V12.319h-2.705v5.411c0 .658-.076 1.191-.227 1.599-.144.402-.332.708-.562.918-.231.204-.477.342-.741.415s-.51.109-.74.109c-.573 0-1.017-.128-1.333-.385-.309-.257-.533-.576-.671-.958s-.221-.76-.247-1.136c-.026-.382-.04-.694-.04-.938v-5.035h-2.725v5.983c0 .178.014.461.04.849s.102.82.227 1.293c.125.467.333.918.623 1.353.296.434.707.793 1.234 1.076.526.283 1.207.425 2.043.425zM117.99 22.982h2.705v-6.457c0-.612.167-1.109.503-1.491.342-.388.792-.582 1.353-.582.586 0 1.043.197 1.372.592.335.388.503.935.503 1.639v6.299h2.686v-6.457c0-.612.168-1.109.503-1.491.342-.388.793-.582 1.353-.582.586 0 1.043.197 1.372.592.335.388.504.935.504 1.639v6.299h2.685v-7.01c0-1.165-.313-2.106-.939-2.824-.618-.724-1.536-1.086-2.754-1.086-.685 0-1.313.148-1.886.444s-1.03.701-1.372 1.214c-.276-.5-.671-.902-1.185-1.204s-1.152-.454-1.915-.454c-.646 0-1.237.128-1.777.385a3.69 3.69 0 0 0-1.343 1.037v-1.165h-2.369v10.663zM16.165.485C7.596.485.65 7.431.65 16 9.219 16 16.165 9.054 16.165.485zM16.165 31.515c8.569 0 15.515-6.946 15.515-15.515-8.569 0-15.515 6.946-15.515 15.515zM16.165.485C24.734.485 31.68 7.431 31.68 16 23.111 16 16.165 9.054 16.165.485zM16.165 31.515C7.596 31.515.65 24.569.65 16c8.569 0 15.515 6.946 15.515 15.515z"/></symbol><symbol id="icon-partnerlogo4" viewBox="0 0 171 32"><path d="M15.747 31.448c8.532 0 15.448-6.916 15.448-15.448V5.186A4.634 4.634 0 0 0 26.561.552H16.52v6.777c0 1.546.094 3.148.905 4.465.581.943 1.357 1.751 2.278 2.367s1.962 1.028 3.055 1.207l.296.048a.619.619 0 0 1 .303.943.613.613 0 0 1-.303.225l-.296.048a7.725 7.725 0 0 0-6.377 6.377l-.048.296a.619.619 0 0 1-.943.303.613.613 0 0 1-.225-.303l-.048-.296a7.726 7.726 0 0 0-3.574-5.333c-1.316-.811-2.918-.905-4.465-.905H.319c.404 8.173 7.157 14.676 15.43 14.676z"/><path d="M.299 15.228h6.777c1.546 0 3.148-.094 4.465-.905a7.738 7.738 0 0 0 2.529-2.529c.811-1.316.905-2.918.905-4.465V.552H4.934A4.634 4.634 0 0 0 .3 5.186v10.041zM36.181 2.097a1.545 1.545 0 1 1-3.09 0 1.545 1.545 0 0 1 3.09 0zm127.646 7.804c4.319 0 6.403 3.016 6.403 6.51v6.562h-4.52V17.19c0-1.583-.578-2.89-2.234-2.89-1.657 0-2.209 1.307-2.209 2.89v5.782h-4.52V17.19c0-1.583-.552-2.89-2.21-2.89-1.656 0-2.234 1.307-2.234 2.89v5.782h-4.519V16.41c0-3.494 2.083-6.51 6.402-6.51 2.36 0 4.067.93 4.846 2.463.828-1.533 2.636-2.464 4.794-2.464v.002zm-24.164 9.05c1.455 0 2.083-1.332 2.083-2.917v-5.631h4.519v6.184c0 3.695-2.158 6.762-6.602 6.762-4.445 0-6.604-3.066-6.604-6.762v-6.184h4.52v5.631c0 1.583.627 2.917 2.084 2.917zm-13.249 4.423c-2.837 0-4.67-.98-5.75-2.89l3.265-1.835c.451.804 1.129 1.206 2.259 1.206.929 0 1.356-.327 1.356-.729 0-1.533-6.628.026-6.628-4.851 0-2.364 2.008-4.274 5.423-4.274 2.987 0 4.619 1.458 5.347 2.866l-3.264 1.86c-.276-.754-1.13-1.207-1.983-1.207-.653 0-1.004.277-1.004.653 0 1.559 6.627.126 6.627 4.852 0 2.639-2.585 4.349-5.649 4.349zm-15.789 5.38h-4.52V16.663c0-3.847 2.887-6.637 6.904-6.637 3.917 0 6.905 2.992 6.905 6.637 0 4.022-2.663 6.687-6.654 6.687-.929 0-1.858-.277-2.636-.704v6.109zm2.385-9.653c1.431 0 2.386-1.106 2.386-2.414 0-1.332-.954-2.413-2.386-2.413s-2.385 1.081-2.385 2.414c0 1.307.953 2.413 2.385 2.413zm-11.432-10.03c-1.481 0-2.711-1.232-2.711-2.715s1.23-2.715 2.711-2.715c1.481 0 2.712 1.232 2.712 2.715s-1.23 2.715-2.712 2.715zm-2.259 1.332h4.519v12.57h-4.519V10.404zM90.648 23.35c-3.917 0-6.905-3.016-6.905-6.687 0-3.645 2.988-6.661 6.905-6.661s6.905 3.016 6.905 6.661c0 3.671-2.988 6.687-6.905 6.687zm0-4.249c1.431 0 2.385-1.106 2.385-2.414 0-1.332-.954-2.438-2.385-2.438s-2.385 1.106-2.385 2.438c0 1.308.954 2.414 2.385 2.414zM75.21 29.131c-3.113 0-5.373-1.383-6.528-3.847l3.741-2.011c.402.855 1.155 1.735 2.711 1.735 1.633 0 2.712-1.031 2.838-2.841-.602.528-1.557.93-2.988.93-3.491 0-6.303-2.69-6.303-6.46 0-3.644 2.988-6.611 6.905-6.611 4.017 0 6.905 2.791 6.905 6.637v4.977c0 4.525-3.139 7.491-7.282 7.491zm.301-10.281c1.356 0 2.385-.931 2.385-2.313 0-1.357-1.029-2.262-2.385-2.262-1.331 0-2.385.905-2.385 2.263 0 1.383 1.054 2.312 2.385 2.312v.001zm-14.495 4.5c-3.917 0-6.905-3.016-6.905-6.687 0-3.645 2.988-6.661 6.905-6.661s6.905 3.016 6.905 6.661c0 3.671-2.988 6.687-6.905 6.687zm0-4.249c1.431 0 2.385-1.106 2.385-2.414 0-1.332-.954-2.438-2.385-2.438s-2.385 1.106-2.385 2.438c0 1.308.954 2.414 2.385 2.414zM45.881 6.005v12.694h7.482v4.274h-8.11c-2.862 0-4.017-1.509-4.017-3.897V6.005h4.645z"/></symbol><symbol id="icon-partnerlogo5" viewBox="0 0 122 32"><path d="M28.151 11.2c.329 0 .439.119.439.439v7.241h3.721c.32 0 .439.119.439.439v.64c0 .32-.119.439-.439.439H27.41c-.32 0-.448-.119-.448-.439v-8.32c0-.32.128-.439.448-.439h.741zM35.996 14.391c0-2.112 1.335-3.383 3.657-3.383s3.657 1.271 3.657 3.383v2.816c0 2.112-1.344 3.383-3.657 3.383s-3.657-1.271-3.657-3.383v-2.816zm5.778 0c0-1.189-.741-1.829-2.075-1.829s-2.066.649-2.066 1.829v2.834c0 1.198.731 1.829 2.066 1.829s2.075-.658 2.075-1.829v-2.834zM54.199 15.36c.357 0 .439.119.439.439v1.737a2.738 2.738 0 0 1-.969 2.158 3.983 3.983 0 0 1-2.743.859c-2.368 0-3.657-1.271-3.657-3.383v-2.834c0-2.085 1.335-3.365 3.657-3.365 1.829 0 3.017.722 3.52 2.167a.394.394 0 0 1-.109.492.386.386 0 0 1-.165.074l-.713.247c-.311.11-.439.046-.549-.274a1.889 1.889 0 0 0-1.984-1.189c-1.344 0-2.075.649-2.075 1.829v2.907c0 1.198.741 1.829 2.075 1.829s2.158-.613 2.158-1.509v-.677H51.1c-.329 0-.448-.128-.448-.448v-.622c0-.32.119-.439.448-.439h3.099zM58.414 14.391c0-2.112 1.335-3.383 3.657-3.383s3.657 1.271 3.657 3.383v2.816c0 2.112-1.344 3.383-3.657 3.383s-3.657-1.271-3.657-3.383v-2.816zm5.769 0c0-1.189-.741-1.829-2.066-1.829s-2.075.649-2.075 1.829v2.834c0 1.198.741 1.829 2.075 1.829s2.066-.658 2.066-1.829v-2.834zM70.035 11.465c0-.201.064-.265.265-.265h.421c.201 0 .247.064.247.265v8.667c0 .201 0 .265-.247.265H70.3c-.201 0-.265-.064-.265-.265v-8.667zM79.297 11.2a2.868 2.868 0 0 1 2.871 2.871 2.868 2.868 0 0 1-2.871 2.871h-2.743v3.191c0 .201-.046.265-.238.265h-.43c-.192 0-.265-.064-.265-.265v-8.667c0-.201.073-.265.265-.265h3.41zm-.083 4.837a1.998 1.998 0 0 0 1.994-1.994 1.998 1.998 0 0 0-1.994-1.994h-2.743v3.986h2.743zM89.308 11.017a3.301 3.301 0 0 1 3.402 1.993c.073.146 0 .265-.146.338l-.402.183c-.165.064-.229.055-.329-.119a2.483 2.483 0 0 0-2.523-1.5c-1.545 0-2.386.613-2.386 1.71a1.39 1.39 0 0 0 1.161 1.408c.492.16 1.002.259 1.518.293.625.033 1.241.16 1.829.375a2.05 2.05 0 0 1 1.426 2.167c0 1.71-1.243 2.743-3.529 2.743a3.299 3.299 0 0 1-3.501-2.221.243.243 0 0 1-.004-.211.249.249 0 0 1 .159-.137l.402-.146a.246.246 0 0 1 .329.156 2.62 2.62 0 0 0 2.614 1.645c1.728 0 2.579-.603 2.579-1.829a1.36 1.36 0 0 0-1.07-1.399 6.407 6.407 0 0 0-1.454-.256l-.987-.128a8.742 8.742 0 0 1-.914-.247 2.388 2.388 0 0 1-.814-.43 2.222 2.222 0 0 1-.731-1.747c.064-1.6 1.262-2.642 3.374-2.642zM97.784 17.271a2.539 2.539 0 0 0 2.537 2.389 2.539 2.539 0 0 0 2.537-2.389v-5.806c0-.201.064-.265.265-.265h.421c.201 0 .265.064.265.265v5.797c0 2.075-1.225 3.328-3.483 3.328s-3.483-1.253-3.483-3.328v-5.797c0-.201.064-.265.256-.265h.43c.192 0 .256.064.256.265v5.806zM116.426 11.2c.201 0 .265.064.265.265v8.667c0 .201-.064.265-.265.265h-.384c-.192 0-.256-.064-.256-.265v-5.275c0-.768.052-1.534.155-2.295h-.055a16.335 16.335 0 0 1-.997 2.021l-1.966 3.465a.326.326 0 0 1-.302.201h-.256c-.066 0-.13-.019-.186-.054s-.099-.087-.125-.147l-1.993-3.502a14.756 14.756 0 0 1-.914-1.993h-.055c.093.768.143 1.54.146 2.313v5.266c0 .201-.064.265-.265.265h-.357c-.201 0-.265-.064-.265-.265v-8.667c0-.201.064-.265.265-.265h.329a.362.362 0 0 1 .366.21l3.2 5.687 3.182-5.632c.101-.192.155-.219.357-.219l.375-.046zM11.886 19.008v6.61a.96.96 0 0 1-.956.956.96.96 0 0 1-.956-.956v-6.601c.266.194.585.303.914.311.359.01.711-.103.997-.32zm8.137-1.911a.911.911 0 0 0-.914.914v1.152a.96.96 0 0 0 .956.956.958.958 0 0 0 .956-.956v-1.106a.915.915 0 0 0-.995-.96zM7.9 21.513a1.644 1.644 0 0 1-.914-.311v6.629a.96.96 0 1 0 1.92 0v-6.583a1.672 1.672 0 0 1-1.006.265zm9.143-6.4a.92.92 0 0 0-.676.251.918.918 0 0 0-.284.663v5.093a.96.96 0 1 0 1.92 0v-5.029a.914.914 0 0 0-1.006-.961l.046-.018zm-3.036 1.957a1.67 1.67 0 0 1-.96-.311v6.647a.96.96 0 1 0 1.92 0v-6.638c-.29.216-.644.329-1.006.32l.046-.018zm-8.182 5.092V3.593a.858.858 0 0 0-.859-.85h-.201a.858.858 0 0 0-.859.85v18.569a.86.86 0 0 0 .86.86h.201a.857.857 0 0 0 .86-.86zm2.176-1.353H7.8a.857.857 0 0 1-.86-.86V5.805a.858.858 0 0 1 .859-.85H8a.858.858 0 0 1 .859.85v14.162a.86.86 0 0 1-.86.86v-.018zm3.026-2.176h-.21a.852.852 0 0 1-.85-.85V8a.857.857 0 0 1 .246-.607.858.858 0 0 1 .605-.253h.21a.858.858 0 0 1 .85.859v9.783a.85.85 0 0 1-.85.85zm3.026-2.24h-.192a.862.862 0 0 1-.86-.85v-5.266a.85.85 0 0 1 .231-.644.868.868 0 0 1 .628-.271h.201a.86.86 0 0 1 .86.86v5.303a.86.86 0 0 1-.86.869h-.009zm3.036-1.966h-.201a.86.86 0 0 1-.86-.86v-1.362a.858.858 0 0 1 .86-.85h.201a.862.862 0 0 1 .86.85v1.362a.862.862 0 0 1-.85.86h-.009z"/></symbol><symbol id="icon-arrow" viewBox="0 0 38 32"><path d="m.468 17.132 14.4 14.4a1.6 1.6 0 1 0 2.264-2.264L5.462 17.6H36.8a1.6 1.6 0 0 0 0-3.2H5.462l11.67-11.668A1.6 1.6 0 1 0 14.868.468l-14.4 14.4A1.593 1.593 0 0 0-.001 16a1.596 1.596 0 0 0 .469 1.132z"/></symbol></defs></svg>